<?xml version="1.0" standalone="no"?>
<!DOCTYPE svg PUBLIC "-//W3C//DTD SVG 1.1//EN" "http://www.w3.org/Graphics/SVG/1.1/DTD/svg11.dtd" >
<svg xmlns="http://www.w3.org/2000/svg">
<metadata></metadata>
<defs>
<font id="gill_sans_stditalic" horiz-adv-x="960" >
<font-face units-per-em="2048" ascent="1397" descent="-651" />
<missing-glyph horiz-adv-x="569" />
<glyph unicode="&#xfb01;" horiz-adv-x="980" d="M53 -387l170 1153h-135l23 154h133q16 121 45 208.5t77 154t122 99.5t174 33q135 0 216.5 -73.5t79.5 -186.5h-165q-9 51 -46.5 81t-91.5 30q-37 0 -66.5 -8t-51 -21t-38.5 -37.5t-28.5 -49t-22 -65t-17 -75.5t-15.5 -90h196l-22 -154h-195l-172 -1153h-170zM621 0 l135 920h174l-135 -920h-174z" />
<glyph unicode="&#xfb02;" horiz-adv-x="980" d="M53 -387l170 1153h-133l23 154h131q35 261 131 378t274 117q55 0 101 -18l-21 -142q-37 11 -78 11q-49 0 -87 -19.5t-63 -51t-42.5 -78t-26.5 -93.5t-14 -104h200l-28 -154h-193l-174 -1153h-170zM618 0l207 1397h174l-206 -1397h-175z" />
<glyph horiz-adv-x="2048" />
<glyph horiz-adv-x="2048" />
<glyph unicode="&#xd;" horiz-adv-x="2048" />
<glyph unicode=" "  horiz-adv-x="569" />
<glyph unicode="&#x09;" horiz-adv-x="569" />
<glyph unicode="&#xa0;" horiz-adv-x="569" />
<glyph unicode="!" horiz-adv-x="512" d="M86 90q0 50 35 84.5t84 34.5t84 -34.5t35 -84.5t-35 -84.5t-84 -34.5t-84 34.5t-35 84.5zM193 340q11 101 21 229.5t15 219.5t11.5 222.5t9.5 176.5q8 125 37.5 176t97.5 51q39 0 60.5 -32t21.5 -89q0 -46 -27 -175.5t-82.5 -372.5t-89.5 -406h-75z" />
<glyph unicode="&#x22;" horiz-adv-x="724" d="M176 1227v239h197v-239l-47 -281h-103zM508 1227v239h197v-239l-48 -281h-102z" />
<glyph unicode="#" horiz-adv-x="1196" d="M0 233v142h213l74 348h-287v141h315l84 400h148l-84 -400h397l84 400h148l-84 -400h186v-141h-215l-74 -348h289v-142h-317l-84 -399h-148l84 399h-397l-84 -399h-148l84 399h-184zM360 375h398l73 348h-397z" />
<glyph unicode="$" horiz-adv-x="1024" d="M82 92l29 201q73 -47 132.5 -74.5t162.5 -56.5l59 438q-160 90 -233.5 177t-73.5 202q0 145 116 245t295 109l11 82h151l-10 -82q80 -10 139 -32t129 -64l-26 -184q-125 81 -267 108l-61 -438q74 -40 126.5 -77t96.5 -83.5t66 -101.5t22 -119q0 -141 -114.5 -245.5 t-301.5 -114.5l-28 -207h-152l29 207q-176 24 -297 110zM342 1001q0 -57 33 -98t121 -94l49 358q-93 -14 -148 -58.5t-55 -107.5zM553 150q91 7 151 57.5t60 118.5q0 109 -158 194z" />
<glyph unicode="%" horiz-adv-x="1449" d="M119 1104q0 132 89.5 221.5t221.5 89.5q129 0 220 -90t91 -221q0 -126 -92.5 -218.5t-218.5 -92.5q-130 0 -220.5 92.5t-90.5 218.5zM219 -18l920 1433h153l-917 -1433h-156zM268 1104q0 -63 49 -112.5t113 -49.5q68 0 115 48t47 114q0 68 -47.5 115t-114.5 47 q-68 0 -115 -46t-47 -116zM770 295q0 132 89.5 221.5t221.5 89.5q129 0 220.5 -90t91.5 -221q0 -126 -93 -218.5t-219 -92.5q-130 0 -220.5 92.5t-90.5 218.5zM920 295q0 -63 48.5 -112.5t112.5 -49.5q68 0 115 48t47 114q0 68 -47.5 115t-114.5 47q-68 0 -114.5 -46 t-46.5 -116z" />
<glyph unicode="&#x26;" horiz-adv-x="1409" d="M104 373q0 123 89 235.5t237 177.5q-78 152 -78 295q0 141 94 237.5t232 96.5q114 0 193 -82.5t79 -202.5q0 -234 -297 -401q32 -60 117 -173t164 -204q143 143 223 350h180q-43 -109 -119 -241.5t-165 -216.5q121 -115 252 -115q29 0 45 6l-68 -145q-16 -8 -49 -8 q-69 0 -155.5 44.5t-143.5 108.5q-104 -76 -207 -114.5t-225 -38.5q-97 0 -174.5 31.5t-125.5 86.5t-73 124.5t-25 148.5zM293 371q0 -104 71 -171t181 -67q122 0 270 109q-70 78 -164 200.5t-141 200.5q-217 -121 -217 -272zM518 1075q0 -49 12.5 -94.5t44.5 -114.5 q89 44 143 113.5t54 140.5q0 62 -33.5 101t-87.5 39q-56 0 -94.5 -53.5t-38.5 -131.5z" />
<glyph unicode="'" horiz-adv-x="385" d="M176 1227v239h197v-239l-47 -281h-103z" />
<glyph unicode="(" horiz-adv-x="598" d="M109 311q0 159 35 307.5t104.5 287t148 255.5t189.5 254h98q-131 -164 -272 -489q-54 -123 -96 -360.5t-42 -401.5q0 -359 127 -635h-86q-85 160 -145.5 375t-60.5 407z" />
<glyph unicode=")" horiz-adv-x="598" d="M-113 -471q133 166 273 489q54 123 95.5 360t41.5 402q0 359 -127 635h86q85 -160 146 -375t61 -407q0 -159 -35 -307.5t-104.5 -287t-148 -255.5t-189.5 -254h-99z" />
<glyph unicode="*" horiz-adv-x="917" d="M135 827q0 38 30 61.5t81 41.5l215 74q-7 27 0 47l-232 86q-42 15 -66 37t-24 45q0 33 21 56t51 23q31 0 96 -59l168 -158q9 17 39 21l-47 244q-12 62 1.5 101.5t59.5 39.5q44 0 61 -36t7 -89l-51 -260q28 -5 41 -21l172 164q51 51 94 51q28 0 47 -20.5t19 -52.5 q0 -58 -66 -80l-254 -92q9 -26 0 -47l207 -76q59 -22 86 -46.5t27 -56.5q0 -24 -21 -45.5t-45 -21.5q-48 0 -119 71l-147 146q-21 -21 -41 -21l47 -252q11 -58 -6 -95.5t-58 -37.5q-44 0 -60.5 43.5t-2.5 110.5l49 231q-18 2 -39 21l-160 -148q-40 -37 -64.5 -52t-53.5 -15 q-23 0 -42.5 20.5t-19.5 46.5z" />
<glyph unicode="+" horiz-adv-x="1196" d="M145 639v168h400v399h168v-399h399v-168h-399v-399h-168v399h-400z" />
<glyph unicode="," horiz-adv-x="405" d="M-49 -295l12 90q135 45 135 176q-80 36 -80 105q0 54 36 87.5t93 33.5q55 0 92 -46.5t37 -115.5q0 -117 -89.5 -207.5t-235.5 -122.5z" />
<glyph unicode="-" horiz-adv-x="512" d="M0 369l25 174h487l-25 -174h-487z" />
<glyph unicode="." horiz-adv-x="405" d="M33 90q0 50 34.5 84.5t84.5 34.5q49 0 83.5 -34.5t34.5 -84.5t-34.5 -84.5t-83.5 -34.5q-50 0 -84.5 34.5t-34.5 84.5z" />
<glyph unicode="/" horiz-adv-x="575" d="M57 -18l402 1433h143l-401 -1433h-144z" />
<glyph unicode="0" horiz-adv-x="1067" d="M104 479q0 70 8.5 149.5t28.5 171t50 178t76 166.5t102 139.5t133.5 95.5t165.5 36q167 0 262.5 -125t95.5 -381q0 -105 -15.5 -212t-45 -211t-76.5 -195t-106.5 -160t-139.5 -109t-170 -40q-369 0 -369 497zM297 483q0 -163 44 -249.5t130 -86.5q92 0 177.5 111.5 t137.5 294.5t52 379q0 317 -179 317q-88 0 -172.5 -112t-137 -291t-52.5 -363z" />
<glyph unicode="1" horiz-adv-x="1067" d="M360 0l224 1415h182l-221 -1415h-185z" />
<glyph unicode="2" horiz-adv-x="1067" d="M35 0q278 340 434.5 553.5t216 327.5t59.5 186q0 82 -52 128t-144 46q-140 0 -305 -121l26 199q87 51 160 73.5t156 22.5q152 0 245 -91.5t93 -242.5q0 -144 -122 -343.5t-427 -565.5h532l-24 -172h-848z" />
<glyph unicode="3" horiz-adv-x="1067" d="M49 59l25 166q79 -39 148 -58.5t155 -19.5q135 0 218 70.5t83 185.5q0 80 -40.5 137t-97 79.5t-116.5 17.5l22 166q151 10 233.5 84t82.5 164q0 89 -59.5 143.5t-159.5 54.5q-145 0 -279 -88l27 193q140 61 289 61q170 0 272 -99t102 -263q0 -233 -272 -334 q188 -80 188 -316q0 -51 -14.5 -105t-51 -111.5t-90 -102t-139 -73.5t-190.5 -29q-167 0 -336 77z" />
<glyph unicode="4" horiz-adv-x="1067" d="M80 430v80l741 905h111l-129 -835h201l-21 -150h-207l-67 -430h-179l74 430h-524zM315 580h312l80 471l-5 4z" />
<glyph unicode="5" horiz-adv-x="1067" d="M31 86l63 162q133 -101 281 -101q141 0 231 90.5t90 231.5q0 111 -78.5 176.5t-211.5 65.5q-42 0 -123 -17l125 703h569l-31 -172h-401l-56 -348q185 -9 292.5 -118.5t107.5 -287.5q0 -217 -146 -353t-378 -136q-197 0 -334 104z" />
<glyph unicode="6" horiz-adv-x="1067" d="M111 408q0 100 54 233t138 258l340 498h205l-402 -586l5 -4q61 47 180 47q151 0 240.5 -95t89.5 -255q0 -133 -67.5 -254.5t-179.5 -194.5t-235 -73q-172 0 -270 114t-98 312zM293 387q0 -102 53 -166.5t137 -64.5q115 0 205 100.5t90 232.5q0 88 -52.5 143.5 t-135.5 55.5q-121 0 -209 -89.5t-88 -211.5z" />
<glyph unicode="7" horiz-adv-x="1067" d="M238 -18l573 1243h-563l24 172h809l-653 -1415h-190z" />
<glyph unicode="8" horiz-adv-x="1067" d="M82 369q0 141 78.5 241.5t220.5 141.5q-85 53 -121.5 116t-36.5 158q0 160 120 274.5t286 114.5q172 0 275.5 -97.5t103.5 -260.5q0 -112 -64 -200t-174 -128q95 -41 139.5 -113.5t44.5 -183.5q0 -190 -138 -320t-341 -130q-177 0 -285 107t-108 280zM264 367 q0 -95 63 -157.5t160 -62.5q117 0 201 83t84 198q0 103 -61.5 163t-169.5 60q-112 0 -194.5 -85t-82.5 -199zM406 1014q0 -88 52 -142.5t138 -54.5q94 0 161.5 70.5t67.5 167.5q0 86 -52.5 140t-137.5 54q-95 0 -162 -69t-67 -166z" />
<glyph unicode="9" horiz-adv-x="1067" d="M160 870q0 108 39.5 209t105.5 174.5t156.5 117.5t187.5 44q158 0 260.5 -114.5t102.5 -292.5q0 -119 -42.5 -238.5t-156.5 -286.5l-344 -501h-205l414 602l-4 4q-85 -49 -178 -49q-148 0 -242 93t-94 238zM348 903q0 -95 49.5 -146.5t143.5 -51.5q109 0 195.5 90.5 t86.5 203.5q0 108 -51.5 172t-138.5 64q-114 0 -199.5 -100t-85.5 -232z" />
<glyph unicode=":" horiz-adv-x="405" d="M33 90q0 50 34.5 84.5t84.5 34.5q49 0 83.5 -34.5t34.5 -84.5t-34.5 -84.5t-83.5 -34.5q-50 0 -84.5 34.5t-34.5 84.5zM147 829q0 49 34.5 84t84.5 35t84.5 -35t34.5 -84t-34.5 -83.5t-84.5 -34.5t-84.5 34.5t-34.5 83.5z" />
<glyph unicode=";" horiz-adv-x="405" d="M-20 -295l12 90q135 45 135 176q-80 36 -80 105q0 54 36 87.5t93 33.5q55 0 92 -46.5t37 -115.5q0 -117 -89.5 -207.5t-235.5 -122.5zM147 829q0 49 34.5 84t84.5 35t84.5 -35t34.5 -84t-34.5 -83.5t-84.5 -34.5t-84.5 34.5t-34.5 83.5z" />
<glyph unicode="&#x3c;" horiz-adv-x="1196" d="M143 641v168l971 414v-179l-770 -319l770 -319v-179z" />
<glyph unicode="=" horiz-adv-x="1196" d="M145 416v168h967v-168h-967zM145 862v168h967v-168h-967z" />
<glyph unicode="&#x3e;" horiz-adv-x="1196" d="M143 227v179l770 319l-770 319v179l971 -414v-168z" />
<glyph unicode="?" horiz-adv-x="724" d="M123 90q0 50 34.5 84.5t84.5 34.5q49 0 83.5 -34.5t34.5 -84.5t-34.5 -84.5t-83.5 -34.5q-50 0 -84.5 34.5t-34.5 84.5zM180 1135l29 202q67 42 119 60t110 18q135 0 217 -86.5t82 -228.5q0 -60 -20 -115t-53.5 -100t-74 -89t-83 -92t-79.5 -99t-66 -119.5t-39 -145.5 h-113q0 88 19.5 168t50 139.5t68 112.5t75 96.5t68 82.5t50 79t19.5 78q0 68 -40.5 110.5t-110.5 42.5q-48 0 -108.5 -29.5t-119.5 -84.5z" />
<glyph unicode="@" horiz-adv-x="2068" d="M111 469q0 95 16.5 193t53.5 199t91.5 192.5t135.5 172.5t180 140t230.5 93t281.5 34q246 0 442 -100t306 -278t110 -402q0 -134 -51 -265.5t-133 -230.5t-192 -160t-222 -61q-199 0 -199 168q-68 -78 -148 -122t-155 -44q-158 0 -262 128.5t-104 324.5q0 117 45 233 t116.5 203t167 141.5t191.5 54.5q92 0 169.5 -47.5t131.5 -136.5l35 156h180l-168 -772q-12 -57 4 -90t61 -33q27 0 71.5 21.5t99 68t101.5 109t79 157t32 199.5q0 179 -92.5 323.5t-256.5 227t-367 82.5q-177 0 -331.5 -65.5t-264.5 -179.5t-173 -274.5t-63 -343.5 q0 -364 227 -566t637 -202q246 0 425.5 82.5t275.5 218.5h184q-272 -448 -887 -448q-472 0 -741.5 240t-269.5 659zM680 436q0 -131 60.5 -212t158.5 -81q87 0 170 73t134.5 190.5t51.5 240.5q0 134 -62.5 213.5t-168.5 79.5q-86 0 -166 -72t-129 -189.5t-49 -242.5z" />
<glyph unicode="A" horiz-adv-x="1067" d="M-72 0l617 1405h176l272 -1405h-172l-84 438h-438l-184 -438h-187zM360 586h349l-107 573h-4z" />
<glyph unicode="B" horiz-adv-x="1044" d="M80 0l194 1397h205q117 0 205 -28.5t138.5 -79t75 -112.5t24.5 -135q0 -183 -193 -276q289 -100 289 -375q0 -177 -141 -284t-363 -107h-434zM285 156h211q160 0 246.5 62.5t86.5 180.5q0 121 -99.5 202t-235.5 81h-136zM381 838h100q115 0 183.5 57.5t68.5 151.5 q0 193 -238 193q-28 0 -59 -3z" />
<glyph unicode="C" horiz-adv-x="1130" d="M100 563q0 182 66.5 338.5t187.5 270.5t302 178.5t399 64.5h133l-37 -176h-102q-167 0 -300 -44t-215 -112.5t-137 -159t-76.5 -176.5t-21.5 -172q0 -190 100 -303.5t267 -113.5q89 0 206 48.5t211 123.5l-30 -226q-212 -122 -414 -122q-238 0 -388.5 162.5t-150.5 418.5 z" />
<glyph unicode="D" horiz-adv-x="1343" d="M80 0l199 1397h165q430 0 643 -223q177 -183 177 -478q0 -112 -25 -212t-81 -189.5t-139.5 -154t-207 -102.5t-276.5 -38h-455zM293 166h168q188 0 286 30.5t175 104.5q63 60 103 166.5t40 234.5q0 112 -37 204t-95.5 150.5t-134 99t-148.5 57t-144 16.5h-64z" />
<glyph unicode="E" horiz-adv-x="1044" d="M78 0l203 1397h739l-23 -166h-559l-61 -438h493l-22 -166h-496l-67 -461h735l-25 -166h-917z" />
<glyph unicode="F" horiz-adv-x="854" d="M63 0l203 1397h666l-23 -166h-485l-62 -438h447l-25 -166h-446l-88 -627h-187z" />
<glyph unicode="G" horiz-adv-x="1236" d="M72 596q0 73 14 148t48 156t84 154.5t127.5 140t173.5 115t227.5 77t283.5 28.5q89 0 242 -18l-23 -168q-168 18 -248 18q-154 0 -280.5 -41.5t-208.5 -108t-138 -153t-80 -172.5t-24 -170q0 -201 112.5 -326.5t291.5 -125.5q137 0 268 67l33 242h-199l21 147h385 l-72 -502q-116 -61 -219 -91.5t-232 -30.5q-115 0 -212.5 34t-165.5 93t-116 137.5t-70.5 167t-22.5 182.5z" />
<glyph unicode="H" horiz-adv-x="1429" d="M72 0l196 1397h191l-84 -604h755l84 604h193l-197 -1397h-192l88 618h-756l-86 -618h-192z" />
<glyph unicode="I" horiz-adv-x="491" d="M80 0l196 1397h193l-197 -1397h-192z" />
<glyph unicode="J" horiz-adv-x="491" d="M-272 -287q76 -16 135 -16q100 0 151 49t68 164l209 1487h184l-211 -1499q-52 -369 -360 -369q-66 0 -133 12z" />
<glyph unicode="K" horiz-adv-x="1153" d="M70 0l196 1397h189l-93 -598l5 -4l594 602h213l-644 -645l625 -752h-219l-576 731l-102 -731h-188z" />
<glyph unicode="L" horiz-adv-x="854" d="M72 0l196 1397h185l-183 -1241h574l-23 -156h-749z" />
<glyph unicode="M" horiz-adv-x="1665" d="M-2 0l461 1397h159l218 -946l501 946h185v-1397h-185v1059h-4l-561 -1059l-242 1069h-4l-344 -1069h-184z" />
<glyph unicode="N" horiz-adv-x="1409" d="M80 0l196 1397h95l698 -1028l145 1028h175l-197 -1397h-100l-695 1020l-143 -1020h-174z" />
<glyph unicode="O" horiz-adv-x="1343" d="M104 571q0 112 27 228.5t84 227t135.5 197t190.5 139t241 52.5q222 0 358 -162t136 -424q0 -183 -55 -343t-147.5 -269.5t-215.5 -172t-256 -62.5q-145 0 -258.5 74.5t-176.5 209t-63 305.5zM293 545q0 -183 85 -289t228 -106q96 0 184.5 56t153.5 151t104 227.5 t39 277.5q0 182 -83.5 283.5t-223.5 101.5q-95 0 -177 -44.5t-137.5 -116.5t-95.5 -164.5t-58.5 -188.5t-18.5 -188z" />
<glyph unicode="P" horiz-adv-x="917" d="M55 0l197 1397h240q70 0 131 -10.5t121.5 -38.5t103.5 -71.5t69.5 -114t26.5 -161.5q0 -50 -13.5 -103t-46.5 -109t-82.5 -99.5t-128 -71.5t-175.5 -28h-168l-82 -590h-193zM354 756h135q69 0 122.5 22.5t84 60t45.5 80.5t15 89q0 95 -62 159t-192 64h-82z" />
<glyph unicode="Q" horiz-adv-x="1343" d="M104 596q0 86 19.5 178.5t56 184.5t95 174t130.5 145t168 100t203 37q232 0 366 -156.5t134 -431.5q0 -316 -153 -540.5t-408 -286.5q33 -109 114.5 -170t180.5 -61q47 0 96 18t97.5 65.5t72.5 116.5h31q-3 -69 -23.5 -131.5t-59.5 -117t-104 -87t-149 -32.5 q-70 0 -135.5 22t-128 67t-114.5 124.5t-85 185.5q-191 38 -297.5 197t-106.5 399zM293 551q0 -190 85 -286.5t240 -96.5q126 0 233.5 89t171.5 247t64 348q0 191 -81 293t-224 102q-85 0 -159 -34.5t-126 -92.5t-92.5 -130t-64 -151.5t-35.5 -152t-12 -135.5z" />
<glyph unicode="R" horiz-adv-x="1087" d="M74 0l196 1397h252q136 0 218.5 -22.5t142.5 -76.5q114 -105 114 -280q0 -126 -77 -217t-209 -125q62 -39 116 -154l250 -522h-200l-160 332q-59 123 -100 181.5t-83 80.5t-108 22h-74l-86 -616h-192zM377 782h98q74 0 131.5 15t93 39t58.5 57t32 66t9 69q0 99 -64 151 t-188 52h-109z" />
<glyph unicode="S" horiz-adv-x="937" d="M102 82l29 205q192 -133 328 -133q41 0 86 16.5t83 59.5t38 104q0 50 -26 97t-68 86.5t-92.5 80t-100.5 85.5t-92 94.5t-68 116t-26 140.5q0 110 65 199t167.5 135.5t217.5 46.5q130 0 256 -55l-27 -191q-116 74 -245 74q-112 0 -179 -57.5t-67 -153.5q0 -45 26 -89 t68 -82t92.5 -77.5t100.5 -84.5t92 -94.5t68 -115.5t26 -139q0 -67 -26 -131t-75.5 -118t-131 -86.5t-181.5 -32.5q-170 0 -338 100z" />
<glyph unicode="T" horiz-adv-x="1044" d="M137 1223l25 174h979l-25 -174h-393l-172 -1223h-193l172 1223h-393z" />
<glyph unicode="U" horiz-adv-x="1300" d="M129 498l127 899h184l-129 -914q-4 -32 -4 -60q1 -116 71 -186q88 -87 234 -87q76 0 147 26.5t122 77.5t75 126.5t43 213.5l113 803h193l-121 -862q-39 -278 -190.5 -415.5t-391.5 -137.5q-241 0 -373 142q-106 114 -106 287q0 42 6 87z" />
<glyph unicode="V" horiz-adv-x="1044" d="M131 1397h180l183 -975h4l467 975h192l-682 -1409h-72z" />
<glyph unicode="W" horiz-adv-x="1898" d="M123 1397h176l227 -989h4l471 989h72l273 -1006l479 1006h194l-676 -1409h-71l-271 991l-475 -991h-73z" />
<glyph unicode="X" horiz-adv-x="1366" d="M-37 0l649 739l-413 658h211l331 -514l455 514h244l-598 -678l454 -719h-219l-362 575l-500 -575h-252z" />
<glyph unicode="Y" horiz-adv-x="1003" d="M139 1397h195l237 -512l357 512h213l-490 -701l-98 -696h-184l98 696z" />
<glyph unicode="Z" horiz-adv-x="1193" d="M-66 0l1014 1223h-794l24 174h1147l-1018 -1223h828l-25 -174h-1176z" />
<glyph unicode="[" horiz-adv-x="681" d="M78 -453l260 1850h432l-18 -135h-265l-221 -1579h262l-18 -136h-432z" />
<glyph unicode="\" horiz-adv-x="575" d="M27 1415h143l401 -1433h-143z" />
<glyph unicode="]" horiz-adv-x="681" d="M-98 -453l18 136h264l222 1579h-263l19 135h432l-260 -1850h-432z" />
<glyph unicode="^" d="M88 596l354 801h146l354 -801h-182l-246 598l-242 -598h-184z" />
<glyph unicode="_" horiz-adv-x="1024" d="M-12 -154h1048v-102h-1048v102z" />
<glyph unicode="`" horiz-adv-x="681" d="M205 1372h207l139 -299h-115z" />
<glyph unicode="a" d="M72 346q0 91 21.5 175.5t69.5 163t119 136.5t177.5 92.5t236.5 34.5q51 0 115.5 -8t101.5 -20l-129 -920h-174l17 106l-4 5q-119 -129 -248 -129q-127 0 -215 106.5t-88 257.5zM250 377q0 -110 51 -181t131 -71q50 0 111.5 42t103.5 99l76 531q-27 2 -52 2 q-82 0 -149 -22q-88 -29 -137.5 -77.5t-81.5 -112.5t-42.5 -115t-10.5 -95z" />
<glyph unicode="b" d="M61 -14l191 1411h178l-78 -547l4 -4q56 56 107.5 79t116.5 23q144 0 233.5 -116.5t89.5 -303.5q0 -79 -17 -153t-60.5 -149t-109.5 -130.5t-172 -90t-239 -34.5q-145 0 -244 15zM250 115h96q179 0 279 114t100 303q0 125 -53 195t-146 70q-54 0 -121 -32.5t-75 -84.5z " />
<glyph unicode="c" horiz-adv-x="788" d="M49 395q0 112 43 212.5t119 176t189 120t245 44.5q67 0 158 -16l-23 -154q-70 15 -133 15q-93 0 -173 -33t-133.5 -87.5t-83.5 -124t-30 -142.5q0 -130 67.5 -204.5t184.5 -74.5q120 0 252 78l-20 -168q-124 -66 -256 -66q-186 0 -296 115t-110 309z" />
<glyph unicode="d" d="M63 397q0 63 20 133.5t67.5 145.5t115 135t172.5 98.5t230 38.5h73l64 449h174l-197 -1397q-107 -29 -235 -29q-232 0 -358 110.5t-126 315.5zM242 401q0 -137 79 -211.5t226 -74.5q51 0 80 4l94 684h-45q-103 0 -187.5 -35t-137 -92.5t-81 -128.5t-28.5 -146z" />
<glyph unicode="e" horiz-adv-x="897" d="M78 416q0 148 57.5 270.5t157.5 192t221 69.5q76 0 141.5 -34.5t110 -95t63.5 -149.5q11 -51 11 -107q0 -41 -6 -85h-574q-8 -48 -8 -90q0 -38 6 -70q14 -68 50.5 -113t84.5 -67t103 -22q128 0 299 125l-25 -166q-139 -103 -307 -103q-175 0 -280 122t-105 323zM287 598 h385q0 93 -41.5 150t-124.5 57q-149 0 -219 -207z" />
<glyph unicode="f" horiz-adv-x="555" d="M61 -387l148 1153h-148l23 154h145q5 85 25 158.5t56 136t86.5 106.5t120.5 69t155 25q102 0 223 -43l-25 -172q-91 51 -180 51q-127 0 -201 -85t-88 -246h187l-23 -154h-186l-148 -1153h-170z" />
<glyph unicode="g" horiz-adv-x="874" d="M-23 -233q0 52 39.5 90.5t93.5 59t132 36.5v4q-86 32 -123 70t-37 92q0 56 51 102t131 68q-166 78 -166 264q0 156 100.5 261.5t241.5 105.5h471l-18 -136h-178q61 -88 61 -182q0 -117 -55 -203.5t-160 -130.5q-33 -14 -93.5 -26t-105 -19.5t-79.5 -27.5t-35 -50 q0 -26 37.5 -45t93.5 -30t121 -31t121 -46t93.5 -78t37.5 -124q0 -114 -106 -188t-269 -74q-173 0 -286.5 67.5t-113.5 170.5zM143 -229q0 -51 66.5 -81t181.5 -30q89 0 142 32t53 83q0 41 -59 76t-146 55q-98 -19 -168 -55.5t-70 -79.5zM264 565q0 -81 47 -133.5t119 -52.5 q81 0 130.5 66t49.5 149q0 81 -46.5 132.5t-117.5 51.5t-126.5 -65t-55.5 -148z" />
<glyph unicode="h" d="M43 0l197 1397h174l-88 -625l4 -4q154 180 319 180q121 0 175 -92q40 -67 40 -158q0 -34 -6 -71l-88 -627h-174l88 637q4 25 4 47q0 53 -21 86q-29 47 -87 47q-60 0 -134 -61t-145 -158l-84 -598h-174z" />
<glyph unicode="i" horiz-adv-x="385" d="M47 0l129 920h174l-129 -920h-174zM195 1208q0 41 29.5 71t70.5 30t70.5 -30t29.5 -71t-29.5 -70.5t-70.5 -29.5t-70.5 29.5t-29.5 70.5z" />
<glyph unicode="j" horiz-adv-x="385" d="M-211 -453l23 154q41 -10 75 -10q50 0 83 21q57 36 71 151l135 1057h174l-141 -1106q-13 -100 -61.5 -166t-113 -92.5t-143.5 -26.5q-59 0 -102 18zM193 1208q0 41 29.5 71t70.5 30t70.5 -30t29.5 -71t-29.5 -70.5t-70.5 -29.5t-70.5 29.5t-29.5 70.5z" />
<glyph unicode="k" horiz-adv-x="937" d="M49 0l195 1397h174l-125 -873l4 -4l385 400h221l-422 -435l451 -485h-221l-424 467l-66 -467h-172z" />
<glyph unicode="l" horiz-adv-x="385" d="M47 0l197 1397h174l-197 -1397h-174z" />
<glyph unicode="m" horiz-adv-x="1515" d="M45 0l131 920h174l-24 -160l4 -4q158 178 317 178q32 0 62 -9.5t61 -30.5t54 -64t32 -103q168 207 344 207q52 0 94 -19.5t74 -60.5q34 -41 44 -105q5 -31 4 -68q0 -39 -5 -85l-84 -596h-174l86 604q4 31 4 57q0 51 -16 85q-25 52 -82 51q-54 0 -128 -49t-161 -164 l-84 -584h-174l82 582q6 41 6 75q0 140 -108 140q-52 0 -129 -58.5t-148 -154.5l-82 -584h-174z" />
<glyph unicode="n" d="M61 0l129 920h175l-23 -162l4 -4q146 180 305 180q56 0 100 -22t68.5 -58.5t40.5 -83t16 -95t-6 -95.5l-88 -580h-172l84 586q4 34 4 61q0 21 -2 39q-6 40 -23.5 63t-37 32.5t-41.5 9.5q-47 0 -118 -45.5t-159 -159.5l-84 -586h-172z" />
<glyph unicode="o" horiz-adv-x="917" d="M74 383q0 159 57.5 288.5t158.5 203t224 73.5q156 0 249 -109.5t93 -291.5q0 -254 -125.5 -415t-310.5 -161q-163 0 -254.5 109t-91.5 303zM252 365q0 -108 46.5 -176t115.5 -68q110 0 187 124t77 312q0 116 -44.5 185t-119.5 69q-73 0 -134 -63t-94.5 -165t-33.5 -218z " />
<glyph unicode="p" horiz-adv-x="1003" d="M27 -471l163 1163q-40 -29 -75 -72t-53.5 -69.5t-24.5 -26.5q-8 0 -8 13q0 49 55 136.5t123 141.5l47 338h174l-33 -233q47 17 76 22q38 6 80 6q163 0 272 -122t109 -306q0 -72 -19 -146t-62 -147t-105.5 -129.5t-158 -91.5t-210.5 -35h-115l-61 -442h-174zM283 119h84 q77 0 142.5 24.5t110 65t75.5 93t45 107.5t14 111q0 146 -76.5 221.5t-185.5 75.5q-35 0 -57.5 -4.5t-57.5 -21.5z" />
<glyph unicode="q" d="M63 385q0 80 21 157t70 151.5t122 130.5t186 90t253 34h194l-198 -1419h-174l69 498q-115 -56 -190 -56q-158 0 -255.5 114.5t-97.5 299.5zM242 375q0 -118 65 -189t174 -71q57 0 144 41l90 649q-19 1 -37 1q-92 0 -168 -25q-90 -30 -148.5 -88.5t-89 -139t-30.5 -178.5z " />
<glyph unicode="r" horiz-adv-x="641" d="M76 0l129 920h174l-27 -175l4 -4q82 117 130 155t114 38q40 0 76 -14v-197q-55 31 -107 31q-68 0 -121.5 -51t-125.5 -185l-72 -518h-174z" />
<glyph unicode="s" horiz-adv-x="724" d="M23 92l30 168q173 -137 283 -137q52 0 85.5 29t33.5 73q0 31 -20 60.5t-51.5 54.5t-70.5 51t-77.5 56t-70 63t-51.5 78t-20 96q0 119 79 191.5t210 72.5q139 0 279 -96v-182q-157 121 -277 121q-53 0 -89 -28.5t-36 -68.5q0 -35 38 -71t92 -71t107.5 -75.5t91.5 -100.5 t38 -130q0 -123 -81 -199t-204 -76q-86 0 -153 25.5t-166 95.5z" />
<glyph unicode="t" horiz-adv-x="575" d="M45 784l21 136h167l35 188h172l-32 -188h176l-19 -136h-184l-88 -503q-6 -37 -6 -64q-1 -37 11 -57q20 -34 85 -33q71 0 168 55l-10 -170q-98 -41 -191 -41q-130 0 -194 73q-49 56 -49 134q0 23 4 49l96 557h-162z" />
<glyph unicode="u" d="M86 182q-6 27 -6 59q0 33 6 72l86 607h174l-86 -607q-5 -34 -5 -62q1 -59 23 -89q32 -42 80 -43q108 0 277 203l84 598h174l-131 -920h-172l20 152l-4 4q-161 -170 -303 -170q-33 0 -65 9.5t-65.5 32.5t-54 60.5t-32.5 93.5z" />
<glyph unicode="v" horiz-adv-x="768" d="M74 920h172l121 -584h4l295 584h176l-473 -938h-86z" />
<glyph unicode="w" horiz-adv-x="1259" d="M66 920h170l110 -619h4l299 619h86l115 -619h4l301 619h170l-473 -938h-82l-119 602h-4l-311 -602h-80z" />
<glyph unicode="x" horiz-adv-x="874" d="M-63 0l401 487l-217 433h186l146 -310l239 310h215l-370 -455l233 -465h-186l-168 344l-266 -344h-213z" />
<glyph unicode="y" horiz-adv-x="768" d="M-25 -471l250 526l-178 865h174l123 -633h4l289 633h182l-659 -1391h-185z" />
<glyph unicode="z" horiz-adv-x="937" d="M-27 0l600 766h-464l20 154h786l-610 -766h535l-33 -154h-834z" />
<glyph unicode="{" horiz-adv-x="681" d="M57 449v163q119 0 163 82t44 252v180q0 186 66 275.5t225 89.5h80v-156h-31q-107 0 -140.5 -39.5t-33.5 -167.5v-147q0 -206 -45.5 -303.5t-161.5 -147.5q79 -34 123 -86t64 -138t20 -226v-148q0 -127 33.5 -166.5t140.5 -39.5h31v-156h-80q-159 0 -225 89t-66 275v181 q0 170 -44 252t-163 82z" />
<glyph unicode="|" horiz-adv-x="532" d="M221 -512v2048h156v-2048h-156z" />
<glyph unicode="}" horiz-adv-x="681" d="M47 -274h31q107 0 140.5 39.5t33.5 166.5v148q0 140 20 226t64 138t123 86q-116 50 -161.5 147.5t-45.5 303.5v147q0 128 -33.5 167.5t-140.5 39.5h-31v156h80q159 0 225 -89.5t66 -275.5v-180q0 -170 44 -252t163 -82v-163q-119 0 -163 -82t-44 -252v-181 q0 -186 -66 -275t-225 -89h-80v156z" />
<glyph unicode="~" horiz-adv-x="1196" d="M80 406v169q157 132 305 132q39 0 87.5 -13t81.5 -26.5t89 -38.5q60 -27 89 -39t75.5 -25.5t81.5 -13.5q120 0 287 137v-170q-153 -131 -299 -131q-84 0 -256 78q-61 27 -90.5 39t-77 25.5t-82.5 13.5q-69 0 -137 -35t-154 -102z" />
<glyph unicode="&#xa1;" horiz-adv-x="512" d="M47 -350q0 46 27 175.5t82.5 372.5t89.5 406h76q-12 -101 -22 -230.5t-15 -217.5t-12 -224.5l-9 -175.5q-8 -125 -37.5 -176t-97.5 -51q-39 0 -60.5 32t-21.5 89zM190 854q0 50 35 84.5t84 34.5t84 -34.5t35 -84.5t-35 -84.5t-84 -34.5t-84 34.5t-35 84.5z" />
<glyph unicode="&#xa2;" horiz-adv-x="788" d="M57 406q0 146 71.5 267.5t198.5 193t283 77.5l109 361h100l-112 -361q71 -7 100 -14l-23 -152q-77 15 -129 15l-204 -666q75 -7 152 18t140 76l-26 -184q-57 -39 -153 -57.5t-161 2.5l-114 -367h-94l118 385q-256 93 -256 406zM236 406q0 -92 30.5 -152t95.5 -102 l197 632q-147 -31 -235 -133.5t-88 -244.5z" />
<glyph unicode="&#xa3;" d="M74 -16l215 618h-180l49 166h182q116 341 253 494t312 153q58 0 131 -24l-24 -172q-56 22 -105 22q-110 0 -200.5 -113t-176.5 -360h224l-49 -166h-226l-139 -409q54 4 57 4q48 0 144 -17.5t164 -17.5q115 0 231 55l-27 -190q-96 -45 -227 -45q-48 0 -168.5 17t-194.5 17 q-134 0 -235 -32h-10z" />
<glyph unicode="&#xa4;" horiz-adv-x="1130" d="M106 326l138 137q-72 102 -72 235q0 129 72 236l-138 137l117 117l137 -137q41 30 105.5 50.5t130.5 20.5q126 0 235 -71l138 137l116 -117l-137 -137q34 -47 53 -115t19 -121q0 -61 -20.5 -126.5t-51.5 -108.5l137 -137l-116 -117l-138 137q-104 -72 -235 -72t-236 72 l-137 -137zM336 698q0 -107 76.5 -183.5t183.5 -76.5t183.5 76.5t76.5 183.5t-76.5 183.5t-183.5 76.5t-183.5 -76.5t-76.5 -183.5z" />
<glyph unicode="&#xa5;" horiz-adv-x="1130" d="M27 328l30 135h404l31 151h-408l29 136h342l-273 716h183l237 -694h12l476 694h225l-541 -716h334l-29 -136h-405l-33 -151h408l-29 -135h-406l-69 -328h-180l67 328h-405z" />
<glyph unicode="&#xa6;" horiz-adv-x="532" d="M188 -358v716h156v-716h-156zM188 666v716h156v-716h-156z" />
<glyph unicode="&#xa7;" horiz-adv-x="1003" d="M51 -178l158 88q-18 -110 27 -174t147 -64q79 0 133.5 43.5t54.5 114.5q0 45 -26 91t-68 86.5t-92.5 83t-100.5 88.5t-92 94t-68 108.5t-26 124.5q0 119 85 212t220 122q-59 63 -84.5 117.5t-25.5 123.5q0 148 108.5 241t280.5 93q142 0 214.5 -86.5t47.5 -214.5 l-164 -59q23 45 23 84q0 59 -37.5 96t-97.5 37q-79 0 -136 -48.5t-57 -121.5q0 -44 24.5 -86.5t64 -79.5t87 -75.5t95.5 -83t87.5 -93t64 -113.5t24.5 -137q0 -102 -77.5 -196t-199.5 -144q58 -76 81.5 -132t23.5 -116q0 -139 -103 -228t-264 -89q-63 0 -119 15t-106 46.5 t-79 91t-28 140.5zM276 512q0 -32 13.5 -63.5t41.5 -63t54 -55.5t68.5 -61t66.5 -60q101 24 162 83.5t61 129.5q0 132 -202 295q-116 -5 -190.5 -61.5t-74.5 -143.5z" />
<glyph unicode="&#xa8;" horiz-adv-x="681" d="M172 1214q0 38 28 66.5t66 28.5t66 -28.5t28 -66.5t-28 -66t-66 -28t-66 28t-28 66zM539 1214q0 38 28 66.5t66 28.5t66 -28.5t28 -66.5t-28 -66t-66 -28t-66 28t-28 66z" />
<glyph unicode="&#xa9;" horiz-adv-x="1515" d="M2 737q0 154 59.5 293.5t160.5 240.5t240.5 160.5t293.5 59.5t294 -59.5t241 -160.5t160.5 -240.5t59.5 -293.5q0 -206 -101 -379.5t-274.5 -274.5t-379.5 -101q-154 0 -293.5 59.5t-240.5 160.5t-160.5 241t-59.5 294zM127 737q0 -128 49.5 -245t134 -201.5t201 -134.5 t244.5 -50q171 0 316 84.5t229.5 230t84.5 316.5t-84.5 316t-229.5 229t-316 84q-128 0 -244.5 -49.5t-201 -134t-134 -201t-49.5 -244.5zM362 748q0 187 110.5 299t293.5 112q131 0 219.5 -60.5t122.5 -174.5l-119 -29q-62 154 -233 154q-117 0 -186.5 -88t-69.5 -234 q0 -143 68.5 -224t189.5 -81q88 0 153.5 52t87.5 140l123 -36q-31 -130 -128.5 -201.5t-243.5 -71.5q-179 0 -283.5 119.5t-104.5 323.5z" />
<glyph unicode="&#xaa;" horiz-adv-x="641" d="M106 1055q0 162 113.5 261t298.5 99q78 0 152 -18l-86 -553h-135l6 47q-72 -53 -144 -53q-88 0 -146.5 62.5t-58.5 154.5zM246 1071q0 -61 29 -101t73 -40q54 0 125 80l47 305q-120 0 -197 -61.5t-77 -182.5z" />
<glyph unicode="&#xab;" horiz-adv-x="897" d="M14 459l344 461h158l-354 -482l172 -438h-139zM412 459l344 461h157l-354 -482l172 -438h-139z" />
<glyph unicode="&#xac;" horiz-adv-x="1196" d="M143 694v168h969v-604h-168v436h-801z" />
<glyph unicode="&#xad;" horiz-adv-x="512" d="M0 369l25 174h487l-25 -174h-487z" />
<glyph unicode="&#xae;" horiz-adv-x="1515" d="M2 737q0 154 59.5 293.5t160.5 240.5t240.5 160.5t293.5 59.5t294 -59.5t241 -160.5t160.5 -240.5t59.5 -293.5q0 -206 -101 -379.5t-274.5 -274.5t-379.5 -101q-154 0 -293.5 59.5t-240.5 160.5t-160.5 241t-59.5 294zM127 737q0 -128 49.5 -245t134 -201.5t201 -134.5 t244.5 -50q171 0 316 84.5t229.5 230t84.5 316.5t-84.5 316t-229.5 229t-316 84q-128 0 -244.5 -49.5t-201 -134t-134 -201t-49.5 -244.5zM426 319v811h358q72 0 126.5 -20.5t84 -53t44 -67.5t14.5 -71q0 -98 -64.5 -163t-167.5 -71v-4q49 -17 90.5 -64.5t98.5 -138.5 l98 -158h-160l-71 127q-76 136 -121.5 177t-120.5 41h-78v-345h-131zM557 776h188q78 0 123 31t45 92q0 55 -40 88t-105 33h-211v-244z" />
<glyph unicode="&#xaf;" horiz-adv-x="681" d="M96 1169l19 131h659l-18 -131h-660z" />
<glyph unicode="&#xb0;" horiz-adv-x="811" d="M127 1214q0 116 80.5 196.5t195.5 80.5t196 -80.5t81 -196.5q0 -115 -80.5 -195.5t-196.5 -80.5q-115 0 -195.5 80t-80.5 196zM236 1214q0 -71 48.5 -120.5t118.5 -49.5q71 0 120.5 50t49.5 120t-49.5 119t-120.5 49q-70 0 -118.5 -48.5t-48.5 -119.5z" />
<glyph unicode="&#xb1;" horiz-adv-x="1196" d="M145 0v168h967v-168h-967zM145 639v168h400v399h168v-399h399v-168h-399v-399h-168v399h-400z" />
<glyph unicode="&#xb2;" horiz-adv-x="661" d="M61 680q428 443 428 547q0 40 -27.5 62t-78.5 22q-85 0 -195 -72l19 123q98 53 196 53q94 0 153.5 -48.5t59.5 -123.5q0 -76 -68 -176t-249 -289h307l-14 -98h-531z" />
<glyph unicode="&#xb3;" horiz-adv-x="661" d="M94 713l15 100q37 -15 55 -21.5t57.5 -15t79.5 -8.5q77 0 121.5 34.5t44.5 94.5q0 54 -39.5 82.5t-114.5 28.5l15 92q178 18 178 125q0 41 -31 66.5t-82 25.5q-85 0 -174 -55l17 118q88 35 182 35q106 0 169.5 -52t63.5 -140q0 -116 -151 -170q102 -43 102 -162 q0 -95 -84.5 -158t-212.5 -63q-104 0 -211 43z" />
<glyph unicode="&#xb4;" horiz-adv-x="681" d="M324 1073l139 299h207l-232 -299h-114z" />
<glyph unicode="&#xb5;" horiz-adv-x="1130" d="M14 -354l262 1274h175l-119 -566q-24 -118 19 -185t136 -67q208 0 261 254l116 564h174l-190 -920h-158l8 66q-52 -43 -69 -52q-72 -43 -156 -43q-121 0 -199 111l-88 -436h-172z" />
<glyph unicode="&#xb6;" horiz-adv-x="1110" d="M43 1053q0 198 122.5 305.5t348.5 107.5h633v-166h-146v-1708h-165v1708h-224v-1708h-166v1045q-189 10 -296 121.5t-107 294.5z" />
<glyph unicode="&#xb7;" horiz-adv-x="532" d="M184 709q0 51 37 86.5t88 35.5t87 -35.5t36 -86.5t-36 -88t-87 -37t-88 37t-37 88z" />
<glyph unicode="&#xb8;" horiz-adv-x="681" d="M88 -336l25 94q57 -14 86 -14q44 0 70 21.5t26 56.5q0 44 -55 72l57 120h72l-19 -49q94 -43 94 -139q0 -75 -62.5 -125.5t-154.5 -50.5q-67 0 -139 14z" />
<glyph unicode="&#xb9;" horiz-adv-x="661" d="M276 680l134 735h133l-135 -735h-132z" />
<glyph unicode="&#xba;" horiz-adv-x="618" d="M123 1077q0 145 84.5 241.5t210.5 96.5q106 0 167.5 -66.5t61.5 -179.5q0 -149 -82 -245.5t-209 -96.5q-109 0 -171 66t-62 184zM260 1049q0 -54 27 -90.5t67 -36.5q63 0 109.5 75t46.5 179q0 145 -92 145q-69 0 -113.5 -74t-44.5 -198z" />
<glyph unicode="&#xbb;" horiz-adv-x="897" d="M-53 0l354 481l-172 439h139l181 -459l-345 -461h-157zM348 0l354 481l-172 439h140l180 -459l-344 -461h-158z" />
<glyph unicode="&#xbc;" horiz-adv-x="1728" d="M109 -55l1112 1470h139l-1110 -1470h-141zM272 680l134 735h133l-136 -735h-131zM834 221v47l444 469h84l-76 -428h119l-12 -88h-123l-41 -221h-129l43 221h-309zM1012 309h147l33 183l-4 4z" />
<glyph unicode="&#xbd;" horiz-adv-x="1728" d="M109 -55l1112 1470h139l-1110 -1470h-141zM272 680l134 735h133l-136 -735h-131zM909 0q428 443 428 547q0 40 -27.5 62t-78.5 22q-85 0 -195 -72l19 123q98 53 196 53q94 0 153.5 -48.5t59.5 -123.5q0 -76 -68 -176t-249 -289h307l-14 -98h-531z" />
<glyph unicode="&#xbe;" horiz-adv-x="1728" d="M152 713l14 100q37 -15 55 -21.5t57.5 -15t79.5 -8.5q77 0 121.5 34.5t44.5 94.5q0 54 -39 82.5t-114 28.5l14 92q178 18 178 125q0 41 -30.5 66.5t-81.5 25.5q-86 0 -175 -55l17 118q88 35 182 35q106 0 170 -52t64 -140q0 -116 -152 -170q102 -43 102 -162 q0 -95 -84.5 -158t-212.5 -63q-103 0 -210 43zM244 -55l1112 1470h139l-1110 -1470h-141zM969 221v47l444 469h84l-76 -428h119l-12 -88h-123l-41 -221h-129l43 221h-309zM1147 309h147l33 183l-4 4z" />
<glyph unicode="&#xbf;" horiz-adv-x="724" d="M-2 -156q0 60 20 115t53.5 100t74 89t83.5 92t80 99t66 119.5t39 145.5h112q0 -88 -19.5 -168t-50 -139.5t-68 -112.5t-75 -96.5t-68 -82.5t-50 -79t-19.5 -78q0 -68 41 -110.5t111 -42.5q48 0 108 30t119 85l-29 -203q-67 -42 -119 -60t-110 -18q-135 0 -217 86.5 t-82 228.5zM375 854q0 50 34.5 84.5t84.5 34.5q49 0 83.5 -34.5t34.5 -84.5t-34.5 -84.5t-83.5 -34.5q-50 0 -84.5 34.5t-34.5 84.5z" />
<glyph unicode="&#xc0;" horiz-adv-x="1067" d="M-72 0l617 1405h176l272 -1405h-172l-84 438h-438l-184 -438h-187zM360 586h349l-107 573h-4zM434 1819h207l139 -299h-114z" />
<glyph unicode="&#xc1;" horiz-adv-x="1067" d="M-72 0l617 1405h176l272 -1405h-172l-84 438h-438l-184 -438h-187zM360 586h349l-107 573h-4zM553 1520l139 299h207l-231 -299h-115z" />
<glyph unicode="&#xc2;" horiz-adv-x="1067" d="M-72 0l617 1405h176l272 -1405h-172l-84 438h-438l-184 -438h-187zM348 1516l268 303h203l154 -303h-84l-170 202l-275 -202h-96zM360 586h349l-107 573h-4z" />
<glyph unicode="&#xc3;" horiz-adv-x="1067" d="M-72 0l617 1405h176l272 -1405h-172l-84 438h-438l-184 -438h-187zM360 586h349l-107 573h-4zM379 1550q1 109 46 171.5t120 62.5q39 0 145.5 -39t140.5 -39q29 0 47 20t23 56h80q0 -96 -44.5 -165t-123.5 -69q-27 0 -137.5 39t-145.5 39q-29 0 -47.5 -21t-21.5 -55h-82z " />
<glyph unicode="&#xc4;" horiz-adv-x="1067" d="M-72 0l617 1405h176l272 -1405h-172l-84 438h-438l-184 -438h-187zM360 586h349l-107 573h-4zM401 1661q0 38 28.5 66t66.5 28t66 -28t28 -66t-28 -66t-66 -28t-66.5 28t-28.5 66zM768 1661q0 38 28 66t66 28t66 -28t28 -66t-28 -66t-66 -28t-66 28t-28 66z" />
<glyph unicode="&#xc5;" horiz-adv-x="1067" d="M-72 0l617 1405h176l272 -1405h-172l-84 438h-438l-184 -438h-187zM360 586h349l-107 573h-4zM485 1669q0 79 56.5 136t136.5 57q79 0 135.5 -56.5t56.5 -136.5q0 -79 -56 -135.5t-136 -56.5t-136.5 56.5t-56.5 135.5zM565 1665q0 -46 33.5 -79.5t79.5 -33.5t79.5 33.5 t33.5 79.5t-33.5 79.5t-79.5 33.5t-79.5 -33.5t-33.5 -79.5z" />
<glyph unicode="&#xc6;" horiz-adv-x="1705" d="M-43 0l797 1397h886l-22 -166h-535l-61 -432h502l-23 -166h-502l-65 -467h729l-23 -166h-913l88 633h-311l-348 -633h-199zM584 780h252l65 463h-63z" />
<glyph unicode="&#xc7;" horiz-adv-x="1130" d="M100 563q0 182 66.5 338.5t187.5 270.5t302 178.5t399 64.5h133l-37 -176h-102q-167 0 -300 -44t-215 -112.5t-137 -159t-76.5 -176.5t-21.5 -172q0 -190 100 -303.5t267 -113.5q89 0 206 48.5t211 123.5l-30 -226q-217 -125 -437 -122l-10 -27q94 -43 94 -139 q0 -75 -62.5 -125.5t-154.5 -50.5q-67 0 -139 14l25 94q57 -14 86 -14q44 0 70 21.5t26 56.5q0 43 -55 71l51 107q-202 32 -324.5 188t-122.5 385z" />
<glyph unicode="&#xc8;" horiz-adv-x="1044" d="M78 0l203 1397h739l-23 -166h-559l-61 -438h493l-22 -166h-496l-67 -461h735l-25 -166h-917zM446 1819h207l140 -299h-115z" />
<glyph unicode="&#xc9;" horiz-adv-x="1044" d="M78 0l203 1397h739l-23 -166h-559l-61 -438h493l-22 -166h-496l-67 -461h735l-25 -166h-917zM565 1520l140 299h206l-231 -299h-115z" />
<glyph unicode="&#xca;" horiz-adv-x="1044" d="M78 0l203 1397h739l-23 -166h-559l-61 -438h493l-22 -166h-496l-67 -461h735l-25 -166h-917zM360 1516l269 303h202l154 -303h-84l-170 202l-274 -202h-97z" />
<glyph unicode="&#xcb;" horiz-adv-x="1044" d="M78 0l203 1397h739l-23 -166h-559l-61 -438h493l-22 -166h-496l-67 -461h735l-25 -166h-917zM414 1661q0 38 28 66t66 28t66 -28t28 -66t-28 -66t-66 -28t-66 28t-28 66zM780 1661q0 38 28 66t66 28t66.5 -28t28.5 -66t-28.5 -66t-66.5 -28t-66 28t-28 66z" />
<glyph unicode="&#xcc;" horiz-adv-x="491" d="M80 0l196 1397h193l-197 -1397h-192zM168 1819h207l139 -299h-115z" />
<glyph unicode="&#xcd;" horiz-adv-x="491" d="M80 0l196 1397h193l-197 -1397h-192zM287 1520l139 299h207l-232 -299h-114z" />
<glyph unicode="&#xce;" horiz-adv-x="491" d="M80 0l196 1397h193l-197 -1397h-192zM82 1516l268 303h203l154 -303h-84l-170 202l-275 -202h-96z" />
<glyph unicode="&#xcf;" horiz-adv-x="491" d="M80 0l196 1397h193l-197 -1397h-192zM135 1661q0 38 28 66t66 28t66.5 -28t28.5 -66t-28.5 -66t-66.5 -28t-66 28t-28 66zM502 1661q0 38 28 66t66 28t66 -28t28 -66t-28 -66t-66 -28t-66 28t-28 66z" />
<glyph unicode="&#xd0;" horiz-adv-x="1343" d="M6 616l25 166h159l89 615h165q205 0 373.5 -58.5t274.5 -164.5q172 -172 172 -478q0 -113 -25 -213.5t-80.5 -190t-138 -153.5t-204.5 -101.5t-273 -37.5h-463l88 616h-162zM293 166h168q190 0 289.5 29.5t171.5 101.5q63 63 103 170t40 235q0 268 -162 398.5t-461 130.5 l-63 -449h319l-22 -166h-320z" />
<glyph unicode="&#xd1;" horiz-adv-x="1409" d="M80 0l196 1397h95l698 -1028l145 1028h175l-197 -1397h-100l-695 1020l-143 -1020h-174zM573 1550q1 109 46 171.5t120 62.5q39 0 146 -39t141 -39q29 0 47 20t23 56h80q0 -96 -44.5 -165t-123.5 -69q-27 0 -137.5 39t-145.5 39q-29 0 -48 -21t-22 -55h-82z" />
<glyph unicode="&#xd2;" horiz-adv-x="1343" d="M104 571q0 112 27 228.5t84 227t135.5 197t190.5 139t241 52.5q222 0 358 -162t136 -424q0 -183 -55 -343t-147.5 -269.5t-215.5 -172t-256 -62.5q-145 0 -258.5 74.5t-176.5 209t-63 305.5zM293 545q0 -183 85 -289t228 -106q96 0 184.5 56t153.5 151t104 227.5 t39 277.5q0 182 -83.5 283.5t-223.5 101.5q-95 0 -177 -44.5t-137.5 -116.5t-95.5 -164.5t-58.5 -188.5t-18.5 -188zM596 1819h207l139 -299h-115z" />
<glyph unicode="&#xd3;" horiz-adv-x="1343" d="M104 571q0 112 27 228.5t84 227t135.5 197t190.5 139t241 52.5q222 0 358 -162t136 -424q0 -183 -55 -343t-147.5 -269.5t-215.5 -172t-256 -62.5q-145 0 -258.5 74.5t-176.5 209t-63 305.5zM293 545q0 -183 85 -289t228 -106q96 0 184.5 56t153.5 151t104 227.5 t39 277.5q0 182 -83.5 283.5t-223.5 101.5q-95 0 -177 -44.5t-137.5 -116.5t-95.5 -164.5t-58.5 -188.5t-18.5 -188zM715 1520l139 299h207l-232 -299h-114z" />
<glyph unicode="&#xd4;" horiz-adv-x="1343" d="M104 571q0 112 27 228.5t84 227t135.5 197t190.5 139t241 52.5q222 0 358 -162t136 -424q0 -183 -55 -343t-147.5 -269.5t-215.5 -172t-256 -62.5q-145 0 -258.5 74.5t-176.5 209t-63 305.5zM293 545q0 -183 85 -289t228 -106q96 0 184.5 56t153.5 151t104 227.5 t39 277.5q0 182 -83.5 283.5t-223.5 101.5q-95 0 -177 -44.5t-137.5 -116.5t-95.5 -164.5t-58.5 -188.5t-18.5 -188zM510 1516l268 303h203l154 -303h-84l-170 202l-275 -202h-96z" />
<glyph unicode="&#xd5;" horiz-adv-x="1343" d="M104 571q0 112 27 228.5t84 227t135.5 197t190.5 139t241 52.5q222 0 358 -162t136 -424q0 -183 -55 -343t-147.5 -269.5t-215.5 -172t-256 -62.5q-145 0 -258.5 74.5t-176.5 209t-63 305.5zM293 545q0 -183 85 -289t228 -106q96 0 184.5 56t153.5 151t104 227.5 t39 277.5q0 182 -83.5 283.5t-223.5 101.5q-95 0 -177 -44.5t-137.5 -116.5t-95.5 -164.5t-58.5 -188.5t-18.5 -188zM541 1550q1 109 46 171.5t120 62.5q39 0 145.5 -39t140.5 -39q29 0 47 20t23 56h80q0 -96 -44.5 -165t-123.5 -69q-27 0 -137.5 39t-145.5 39 q-29 0 -47.5 -21t-21.5 -55h-82z" />
<glyph unicode="&#xd6;" horiz-adv-x="1343" d="M104 571q0 112 27 228.5t84 227t135.5 197t190.5 139t241 52.5q222 0 358 -162t136 -424q0 -183 -55 -343t-147.5 -269.5t-215.5 -172t-256 -62.5q-145 0 -258.5 74.5t-176.5 209t-63 305.5zM293 545q0 -183 85 -289t228 -106q96 0 184.5 56t153.5 151t104 227.5 t39 277.5q0 182 -83.5 283.5t-223.5 101.5q-95 0 -177 -44.5t-137.5 -116.5t-95.5 -164.5t-58.5 -188.5t-18.5 -188zM563 1661q0 38 28 66t66 28t66.5 -28t28.5 -66t-28.5 -66t-66.5 -28t-66 28t-28 66zM930 1661q0 38 28 66t66 28t66 -28t28 -66t-28 -66t-66 -28t-66 28 t-28 66z" />
<glyph unicode="&#xd7;" horiz-adv-x="1196" d="M193 410l315 315l-315 315l120 121l316 -315l313 313l121 -121l-313 -313l313 -313l-121 -121l-313 313l-316 -315z" />
<glyph unicode="&#xd8;" horiz-adv-x="1343" d="M59 0l154 184q-109 159 -109 387q0 112 27 228.5t84 227t135.5 197t190.5 139t241 52.5q199 0 340 -141l133 160l78 -93l-139 -165q82 -135 82 -347q0 -183 -55 -343t-147.5 -269.5t-215.5 -172t-256 -62.5q-89 0 -170.5 31t-140.5 85l-154 -182zM293 545q0 -107 41 -215 l676 809q-74 108 -230 108q-95 0 -177 -44.5t-137.5 -116.5t-95.5 -164.5t-58.5 -188.5t-18.5 -188zM399 229q72 -79 207 -79q96 0 184.5 56t153.5 151t104 227.5t39 277.5q0 80 -20 162z" />
<glyph unicode="&#xd9;" horiz-adv-x="1300" d="M129 498l127 899h184l-129 -914q-22 -159 66.5 -246t234.5 -87q76 0 147 26.5t122 77.5t75 126.5t43 213.5l113 803h193l-121 -862q-39 -278 -190.5 -415.5t-391.5 -137.5q-241 0 -373 142t-100 374zM573 1819h207l140 -299h-115z" />
<glyph unicode="&#xda;" horiz-adv-x="1300" d="M129 498l127 899h184l-129 -914q-22 -159 66.5 -246t234.5 -87q76 0 147 26.5t122 77.5t75 126.5t43 213.5l113 803h193l-121 -862q-39 -278 -190.5 -415.5t-391.5 -137.5q-241 0 -373 142t-100 374zM692 1520l139 299h207l-231 -299h-115z" />
<glyph unicode="&#xdb;" horiz-adv-x="1300" d="M129 498l127 899h184l-129 -914q-22 -159 66.5 -246t234.5 -87q76 0 147 26.5t122 77.5t75 126.5t43 213.5l113 803h193l-121 -862q-39 -278 -190.5 -415.5t-391.5 -137.5q-241 0 -373 142t-100 374zM487 1516l269 303h202l154 -303h-84l-170 202l-274 -202h-97z" />
<glyph unicode="&#xdc;" horiz-adv-x="1300" d="M129 498l127 899h184l-129 -914q-22 -159 66.5 -246t234.5 -87q76 0 147 26.5t122 77.5t75 126.5t43 213.5l113 803h193l-121 -862q-39 -278 -190.5 -415.5t-391.5 -137.5q-241 0 -373 142t-100 374zM541 1661q0 38 28 66t66 28t66 -28t28 -66t-28 -66t-66 -28t-66 28 t-28 66zM907 1661q0 38 28 66t66 28t66.5 -28t28.5 -66t-28.5 -66t-66.5 -28t-66 28t-28 66z" />
<glyph unicode="&#xdd;" horiz-adv-x="1003" d="M139 1397h195l237 -512l357 512h213l-490 -701l-98 -696h-184l98 696zM545 1520l139 299h207l-232 -299h-114z" />
<glyph unicode="&#xde;" horiz-adv-x="917" d="M55 0l197 1397h190l-41 -295h50q69 0 130 -10.5t121.5 -38t103.5 -71t70 -114t27 -161.5q0 -50 -13.5 -103t-46.5 -109t-82.5 -100t-128 -72t-175.5 -28h-168l-41 -295h-193zM313 461h136q69 0 122.5 22.5t84 60t46 80.5t15.5 89q0 94 -63 158.5t-193 64.5h-82z" />
<glyph unicode="&#xdf;" horiz-adv-x="1024" d="M84 0l129 920q71 495 412 495q149 0 244.5 -93t95.5 -239q0 -104 -63.5 -185.5t-164.5 -106.5v-5q50 -20 88 -58.5t59 -84.5t31.5 -92.5t10.5 -91.5q0 -131 -54.5 -243.5t-146.5 -178.5t-199 -66q-63 0 -108 29l18 131q33 -8 70 -8q110 0 178 96.5t68 253.5 q0 121 -58.5 190.5t-171.5 81.5l17 119q120 -12 195 53t75 164q0 90 -50 146.5t-130 56.5q-103 0 -158.5 -79t-81.5 -265l-131 -940h-174z" />
<glyph unicode="&#xe0;" d="M72 346q0 91 21.5 175.5t69.5 163t119 136.5t177.5 92.5t236.5 34.5q51 0 115.5 -8t101.5 -20l-129 -920h-174l17 106l-4 5q-119 -129 -248 -129q-127 0 -215 106.5t-88 257.5zM250 377q0 -110 51 -181t131 -71q50 0 111.5 42t103.5 99l76 531q-113 9 -201 -20 t-137.5 -77.5t-81.5 -112.5t-42.5 -115t-10.5 -95zM385 1372h207l139 -299h-115z" />
<glyph unicode="&#xe1;" d="M72 346q0 91 21.5 175.5t69.5 163t119 136.5t177.5 92.5t236.5 34.5q51 0 115.5 -8t101.5 -20l-129 -920h-174l17 106l-4 5q-119 -129 -248 -129q-127 0 -215 106.5t-88 257.5zM250 377q0 -110 51 -181t131 -71q50 0 111.5 42t103.5 99l76 531q-113 9 -201 -20 t-137.5 -77.5t-81.5 -112.5t-42.5 -115t-10.5 -95zM463 1073l139 299h207l-231 -299h-115z" />
<glyph unicode="&#xe2;" d="M72 346q0 91 21.5 175.5t69.5 163t119 136.5t177.5 92.5t236.5 34.5q51 0 115.5 -8t101.5 -20l-129 -920h-174l17 106l-4 5q-119 -129 -248 -129q-127 0 -215 106.5t-88 257.5zM250 377q0 -110 51 -181t131 -71q50 0 111.5 42t103.5 99l76 531q-113 9 -201 -20 t-137.5 -77.5t-81.5 -112.5t-42.5 -115t-10.5 -95zM299 1069l268 303h203l154 -303h-84l-170 203l-275 -203h-96z" />
<glyph unicode="&#xe3;" d="M72 346q0 91 21.5 175.5t69.5 163t119 136.5t177.5 92.5t236.5 34.5q51 0 115.5 -8t101.5 -20l-129 -920h-174l17 106l-4 5q-119 -129 -248 -129q-127 0 -215 106.5t-88 257.5zM250 377q0 -110 51 -181t131 -71q50 0 111.5 42t103.5 99l76 531q-113 9 -201 -20 t-137.5 -77.5t-81.5 -112.5t-42.5 -115t-10.5 -95zM289 1104q1 108 46 170.5t120 62.5q39 0 145.5 -38.5t140.5 -38.5q60 0 70 75h80q0 -96 -44.5 -164.5t-123.5 -68.5q-27 0 -137.5 39t-145.5 39q-29 0 -47.5 -21t-21.5 -55h-82z" />
<glyph unicode="&#xe4;" d="M72 346q0 91 21.5 175.5t69.5 163t119 136.5t177.5 92.5t236.5 34.5q51 0 115.5 -8t101.5 -20l-129 -920h-174l17 106l-4 5q-119 -129 -248 -129q-127 0 -215 106.5t-88 257.5zM250 377q0 -110 51 -181t131 -71q50 0 111.5 42t103.5 99l76 531q-113 9 -201 -20 t-137.5 -77.5t-81.5 -112.5t-42.5 -115t-10.5 -95zM352 1214q0 38 28 66.5t66 28.5t66.5 -28.5t28.5 -66.5t-28.5 -66t-66.5 -28t-66 28t-28 66zM719 1214q0 38 28 66.5t66 28.5t66 -28.5t28 -66.5t-28 -66t-66 -28t-66 28t-28 66z" />
<glyph unicode="&#xe5;" d="M72 346q0 91 21.5 175.5t69.5 163t119 136.5t177.5 92.5t236.5 34.5q51 0 115.5 -8t101.5 -20l-129 -920h-174l17 106l-4 5q-119 -129 -248 -129q-127 0 -215 106.5t-88 257.5zM250 377q0 -110 51 -181t131 -71q50 0 111.5 42t103.5 99l76 531q-113 9 -201 -20 t-137.5 -77.5t-81.5 -112.5t-42.5 -115t-10.5 -95zM436 1223q0 79 56.5 135.5t136.5 56.5q79 0 135.5 -56.5t56.5 -135.5q0 -80 -56.5 -136.5t-135.5 -56.5t-136 57t-57 136zM516 1219q0 -46 33.5 -79.5t79.5 -33.5t79 33.5t33 79.5t-33 79t-79 33t-79.5 -33t-33.5 -79z" />
<glyph unicode="&#xe6;" horiz-adv-x="1323" d="M25 190q0 117 122.5 206.5t387.5 138.5q35 119 3.5 190.5t-112.5 71.5q-62 0 -144.5 -46t-158.5 -124l29 196q86 68 154.5 96.5t152.5 28.5q139 0 205 -125q53 57 129.5 91t154.5 34q104 0 181 -71.5t108.5 -188.5t9.5 -248h-547q-17 -84 -8.5 -145.5t40.5 -101.5t76 -59 t97 -19q62 0 142.5 34.5t156.5 94.5l-24 -178q-151 -95 -299 -95q-103 0 -184 45t-128 129q-77 -87 -159.5 -130.5t-149.5 -43.5q-107 0 -171 59.5t-64 159.5zM203 199q0 -37 26 -60.5t66 -23.5q91 0 199 102l26 191q-146 -28 -231.5 -84t-85.5 -125zM717 561h373 q2 30 -4.5 67t-22.5 79t-54 70t-91 28q-77 0 -135 -62.5t-66 -181.5z" />
<glyph unicode="&#xe7;" horiz-adv-x="788" d="M49 395q0 112 43 212.5t119 176t189 120t245 44.5q67 0 158 -16l-23 -154q-70 15 -133 15q-93 0 -173 -33t-133.5 -87.5t-83.5 -124t-30 -142.5q0 -130 67.5 -204.5t184.5 -74.5q120 0 252 78l-20 -168q-124 -66 -269 -66l-10 -26q94 -43 94 -140q0 -75 -62.5 -125.5 t-154.5 -50.5q-62 0 -139 15l25 94q57 -14 86 -14q44 0 70 21t26 56q0 44 -55 72l51 107q-151 23 -237.5 133.5t-86.5 281.5z" />
<glyph unicode="&#xe8;" horiz-adv-x="897" d="M78 416q0 148 57.5 270.5t157.5 192t221 69.5q76 0 141.5 -34.5t110 -95t63.5 -149.5t5 -192h-574q-15 -92 -1.5 -160t50 -113t84.5 -67t103 -22q128 0 299 125l-25 -166q-139 -103 -307 -103q-175 0 -280 122t-105 323zM287 598h385q0 93 -41.5 150t-124.5 57 q-149 0 -219 -207zM313 1372h207l139 -299h-114z" />
<glyph unicode="&#xe9;" horiz-adv-x="897" d="M78 416q0 148 57.5 270.5t157.5 192t221 69.5q76 0 141.5 -34.5t110 -95t63.5 -149.5t5 -192h-574q-15 -92 -1.5 -160t50 -113t84.5 -67t103 -22q128 0 299 125l-25 -166q-139 -103 -307 -103q-175 0 -280 122t-105 323zM287 598h385q0 93 -41.5 150t-124.5 57 q-149 0 -219 -207zM432 1073l139 299h207l-231 -299h-115z" />
<glyph unicode="&#xea;" horiz-adv-x="897" d="M78 416q0 148 57.5 270.5t157.5 192t221 69.5q76 0 141.5 -34.5t110 -95t63.5 -149.5t5 -192h-574q-15 -92 -1.5 -160t50 -113t84.5 -67t103 -22q128 0 299 125l-25 -166q-139 -103 -307 -103q-175 0 -280 122t-105 323zM227 1069l269 303h202l154 -303h-84l-170 203 l-274 -203h-97zM287 598h385q0 93 -41.5 150t-124.5 57q-149 0 -219 -207z" />
<glyph unicode="&#xeb;" horiz-adv-x="897" d="M78 416q0 148 57.5 270.5t157.5 192t221 69.5q76 0 141.5 -34.5t110 -95t63.5 -149.5t5 -192h-574q-15 -92 -1.5 -160t50 -113t84.5 -67t103 -22q128 0 299 125l-25 -166q-139 -103 -307 -103q-175 0 -280 122t-105 323zM281 1214q0 38 28 66.5t66 28.5t66 -28.5 t28 -66.5t-28 -66t-66 -28t-66 28t-28 66zM287 598h385q0 93 -41.5 150t-124.5 57q-149 0 -219 -207zM647 1214q0 38 28 66.5t66 28.5t66.5 -28.5t28.5 -66.5t-28.5 -66t-66.5 -28t-66 28t-28 66z" />
<glyph unicode="&#xec;" horiz-adv-x="385" d="M47 0l129 920h174l-129 -920h-174zM57 1372h207l139 -299h-114z" />
<glyph unicode="&#xed;" horiz-adv-x="385" d="M47 0l129 920h174l-129 -920h-174zM176 1073l139 299h207l-231 -299h-115z" />
<glyph unicode="&#xee;" horiz-adv-x="385" d="M-29 1069l269 303h202l154 -303h-84l-170 203l-274 -203h-97zM47 0l129 920h174l-129 -920h-174z" />
<glyph unicode="&#xef;" horiz-adv-x="385" d="M25 1214q0 38 28 66.5t66 28.5t66 -28.5t28 -66.5t-28 -66t-66 -28t-66 28t-28 66zM47 0l129 920h174l-129 -920h-174zM391 1214q0 38 28 66.5t66 28.5t66.5 -28.5t28.5 -66.5t-28.5 -66t-66.5 -28t-66 28t-28 66z" />
<glyph unicode="&#xf0;" horiz-adv-x="917" d="M74 385q0 154 57.5 283.5t158 204.5t220.5 75q104 0 170 -61l4 4q-23 130 -119 270l-186 -100l-51 82l176 92q-35 42 -72 65l107 115q64 -38 116 -100l191 100l49 -80l-182 -96q83 -122 126.5 -279.5t43.5 -293.5q0 -191 -58.5 -349t-168 -252t-248.5 -94 q-155 0 -244.5 111t-89.5 303zM250 358q0 -99 47 -174t115 -75q77 0 145 69t106.5 171t38.5 202q0 260 -190 260q-74 0 -135 -65t-94 -168.5t-33 -219.5z" />
<glyph unicode="&#xf1;" d="M61 0l129 920h175l-23 -162l4 -4q146 180 305 180q56 0 100 -22t68.5 -58.5t40.5 -83t16 -95t-6 -95.5l-88 -580h-172l84 586q7 60 1.5 99.5t-23 63t-37 33t-41.5 9.5q-47 0 -118 -45.5t-159 -159.5l-84 -586h-172zM289 1104q1 108 46 170.5t120 62.5q39 0 145.5 -38.5 t140.5 -38.5q60 0 70 75h80q0 -96 -44.5 -164.5t-123.5 -68.5q-27 0 -137.5 39t-145.5 39q-29 0 -47.5 -21t-21.5 -55h-82z" />
<glyph unicode="&#xf2;" horiz-adv-x="917" d="M74 383q0 159 57.5 288.5t158.5 203t224 73.5q156 0 249 -109.5t93 -291.5q0 -254 -125.5 -415t-310.5 -161q-163 0 -254.5 109t-91.5 303zM252 365q0 -108 46.5 -176t115.5 -68q110 0 187 124t77 312q0 116 -44.5 185t-119.5 69q-73 0 -134 -63t-94.5 -165t-33.5 -218z M324 1372h206l140 -299h-115z" />
<glyph unicode="&#xf3;" horiz-adv-x="917" d="M74 383q0 159 57.5 288.5t158.5 203t224 73.5q156 0 249 -109.5t93 -291.5q0 -254 -125.5 -415t-310.5 -161q-163 0 -254.5 109t-91.5 303zM252 365q0 -108 46.5 -176t115.5 -68q110 0 187 124t77 312q0 116 -44.5 185t-119.5 69q-73 0 -134 -63t-94.5 -165t-33.5 -218z M442 1073l140 299h206l-231 -299h-115z" />
<glyph unicode="&#xf4;" horiz-adv-x="917" d="M74 383q0 159 57.5 288.5t158.5 203t224 73.5q156 0 249 -109.5t93 -291.5q0 -254 -125.5 -415t-310.5 -161q-163 0 -254.5 109t-91.5 303zM238 1069l268 303h203l153 -303h-84l-170 203l-274 -203h-96zM252 365q0 -108 46.5 -176t115.5 -68q110 0 187 124t77 312 q0 116 -44.5 185t-119.5 69q-73 0 -134 -63t-94.5 -165t-33.5 -218z" />
<glyph unicode="&#xf5;" horiz-adv-x="917" d="M74 383q0 159 57.5 288.5t158.5 203t224 73.5q156 0 249 -109.5t93 -291.5q0 -254 -125.5 -415t-310.5 -161q-163 0 -254.5 109t-91.5 303zM252 365q0 -108 46.5 -176t115.5 -68q110 0 187 124t77 312q0 116 -44.5 185t-119.5 69q-73 0 -134 -63t-94.5 -165t-33.5 -218z M268 1104q1 108 46 170.5t120 62.5q39 0 146 -38.5t141 -38.5q60 0 70 75h79q0 -96 -44.5 -164.5t-123.5 -68.5q-27 0 -137 39t-145 39q-29 0 -48 -21t-22 -55h-82z" />
<glyph unicode="&#xf6;" horiz-adv-x="917" d="M74 383q0 159 57.5 288.5t158.5 203t224 73.5q156 0 249 -109.5t93 -291.5q0 -254 -125.5 -415t-310.5 -161q-163 0 -254.5 109t-91.5 303zM252 365q0 -108 46.5 -176t115.5 -68q110 0 187 124t77 312q0 116 -44.5 185t-119.5 69q-73 0 -134 -63t-94.5 -165t-33.5 -218z M291 1214q0 38 28 66.5t66 28.5t66 -28.5t28 -66.5t-28 -66t-66 -28t-66 28t-28 66zM657 1214q0 38 28.5 66.5t66.5 28.5t66 -28.5t28 -66.5t-28 -66t-66 -28t-66.5 28t-28.5 66z" />
<glyph unicode="&#xf7;" horiz-adv-x="1196" d="M145 639v168h967v-168h-967zM520 422q0 44 32.5 76t76.5 32t76 -32t32 -76t-32 -76.5t-76 -32.5t-76.5 32.5t-32.5 76.5zM520 1024q0 44 32.5 76.5t76.5 32.5t76 -32.5t32 -76.5t-32 -76.5t-76 -32.5t-76.5 32.5t-32.5 76.5z" />
<glyph unicode="&#xf8;" horiz-adv-x="917" d="M37 35l90 104q-53 100 -53 244q0 159 57.5 288.5t158.5 203t224 73.5q142 0 231 -92l76 88l60 -65l-80 -95q55 -99 55 -237q0 -254 -125.5 -415t-310.5 -161q-149 0 -238 92l-84 -96zM252 365q0 -41 8 -72l377 438q-45 80 -123 80q-73 0 -134 -63t-94.5 -165t-33.5 -218z M295 195q46 -74 119 -74q110 0 187 124t77 312q0 41 -6 76z" />
<glyph unicode="&#xf9;" d="M85.5 181.5q-11.5 55.5 0.5 131.5l86 607h174l-86 -607q-15 -109 17.5 -151.5t80.5 -42.5q108 0 277 203l84 598h174l-131 -920h-172l20 152l-4 4q-161 -170 -303 -170q-33 0 -65 9.5t-65.5 32.5t-54.5 60.5t-32.5 93zM344 1372h207l139 -299h-115z" />
<glyph unicode="&#xfa;" d="M85.5 181.5q-11.5 55.5 0.5 131.5l86 607h174l-86 -607q-15 -109 17.5 -151.5t80.5 -42.5q108 0 277 203l84 598h174l-131 -920h-172l20 152l-4 4q-161 -170 -303 -170q-33 0 -65 9.5t-65.5 32.5t-54.5 60.5t-32.5 93zM463 1073l139 299h207l-231 -299h-115z" />
<glyph unicode="&#xfb;" d="M85.5 181.5q-11.5 55.5 0.5 131.5l86 607h174l-86 -607q-15 -109 17.5 -151.5t80.5 -42.5q108 0 277 203l84 598h174l-131 -920h-172l20 152l-4 4q-161 -170 -303 -170q-33 0 -65 9.5t-65.5 32.5t-54.5 60.5t-32.5 93zM258 1069l268 303h203l154 -303h-84l-170 203 l-275 -203h-96z" />
<glyph unicode="&#xfc;" d="M85.5 181.5q-11.5 55.5 0.5 131.5l86 607h174l-86 -607q-15 -109 17.5 -151.5t80.5 -42.5q108 0 277 203l84 598h174l-131 -920h-172l20 152l-4 4q-161 -170 -303 -170q-33 0 -65 9.5t-65.5 32.5t-54.5 60.5t-32.5 93zM311 1214q0 38 28.5 66.5t66.5 28.5t66 -28.5 t28 -66.5t-28 -66t-66 -28t-66.5 28t-28.5 66zM678 1214q0 38 28 66.5t66 28.5t66 -28.5t28 -66.5t-28 -66t-66 -28t-66 28t-28 66z" />
<glyph unicode="&#xfd;" horiz-adv-x="768" d="M-25 -471l250 526l-178 865h174l123 -633h4l289 633h182l-659 -1391h-185zM367 1073l139 299h207l-232 -299h-114z" />
<glyph unicode="&#xfe;" horiz-adv-x="1003" d="M27 -471l262 1868h174l-68 -477q47 17 76 22q38 6 80 6q163 0 272 -122t109 -306q0 -72 -19 -146t-62 -147t-105.5 -129.5t-158 -91.5t-210.5 -35h-115l-61 -442h-174zM283 119h84q77 0 142.5 24.5t110 65t75.5 93t45 107.5t14 111q0 146 -76.5 221.5t-185.5 75.5 q-35 0 -57.5 -4.5t-57.5 -21.5z" />
<glyph unicode="&#xff;" horiz-adv-x="768" d="M-25 -471l250 526l-178 865h174l123 -633h4l289 633h182l-659 -1391h-185zM215 1214q0 38 28 66.5t66 28.5t66 -28.5t28 -66.5t-28 -66t-66 -28t-66 28t-28 66zM582 1214q0 38 28 66.5t66 28.5t66 -28.5t28 -66.5t-28 -66t-66 -28t-66 28t-28 66z" />
<glyph unicode="&#x152;" horiz-adv-x="1984" d="M104 621q0 56 12 121.5t39.5 141t68.5 147.5t103.5 139t139 117t181.5 80t224 30h1037l-25 -166h-563l-59 -436h528l-25 -166h-528l-63 -463h751l-22 -166h-926q-8 0 -98 -4t-146 -4q-140 0 -251 37t-180.5 97.5t-115 144t-64 169.5t-18.5 181zM303 602 q0 -215 103 -325.5t282 -110.5h301l150 1065h-115q-48 0 -101 1t-79 1q-249 0 -395 -171t-146 -460z" />
<glyph unicode="&#x153;" horiz-adv-x="1472" d="M55 383q0 159 57.5 288.5t159 203t224.5 73.5q181 0 272 -164q130 164 299 164t251.5 -121.5t67.5 -345.5h-567q-32 -160 30.5 -263t209.5 -103q72 0 147.5 35.5t141.5 101.5l-29 -193q-133 -88 -272 -88q-221 0 -347 191q-67 -93 -145 -142t-154 -49q-163 0 -254.5 109 t-91.5 303zM233 365q0 -109 46 -176.5t116 -67.5q68 -6 124.5 53.5t88 167.5t31.5 240q0 100 -40 162t-103 67q-74 0 -135 -63t-94.5 -165t-33.5 -218zM836 602h385q-2 99 -46.5 154t-123.5 55q-78 0 -135 -55.5t-80 -153.5z" />
<glyph unicode="&#x178;" horiz-adv-x="1003" d="M139 1397h195l237 -512l357 512h213l-490 -701l-98 -696h-184l98 696zM393 1661q0 38 28 66t66 28t66.5 -28t28.5 -66t-28.5 -66t-66.5 -28t-66 28t-28 66zM760 1661q0 38 28 66t66 28t66 -28t28 -66t-28 -66t-66 -28t-66 28t-28 66z" />
<glyph unicode="&#x2c6;" horiz-adv-x="681" d="M119 1069l268 303h203l153 -303h-84l-170 203l-274 -203h-96z" />
<glyph unicode="&#x2dc;" horiz-adv-x="681" d="M150 1104q1 109 45.5 171t119.5 62q39 0 146 -38.5t141 -38.5q60 0 70 75h80q0 -96 -44.5 -164.5t-123.5 -68.5q-27 0 -137.5 39t-145.5 39q-29 0 -48 -21t-22 -55h-81z" />
<glyph unicode="&#x2000;" horiz-adv-x="931" />
<glyph unicode="&#x2001;" horiz-adv-x="1862" />
<glyph unicode="&#x2002;" horiz-adv-x="931" />
<glyph unicode="&#x2003;" horiz-adv-x="1862" />
<glyph unicode="&#x2004;" horiz-adv-x="620" />
<glyph unicode="&#x2005;" horiz-adv-x="465" />
<glyph unicode="&#x2006;" horiz-adv-x="310" />
<glyph unicode="&#x2007;" horiz-adv-x="310" />
<glyph unicode="&#x2008;" horiz-adv-x="232" />
<glyph unicode="&#x2009;" horiz-adv-x="372" />
<glyph unicode="&#x200a;" horiz-adv-x="103" />
<glyph unicode="&#x2010;" horiz-adv-x="512" d="M0 369l25 174h487l-25 -174h-487z" />
<glyph unicode="&#x2011;" horiz-adv-x="512" d="M0 369l25 174h487l-25 -174h-487z" />
<glyph unicode="&#x2012;" horiz-adv-x="512" d="M0 369l25 174h487l-25 -174h-487z" />
<glyph unicode="&#x2013;" horiz-adv-x="1024" d="M-18 453v131h1060v-131h-1060z" />
<glyph unicode="&#x2014;" horiz-adv-x="2048" d="M-18 453v131h2084v-131h-2084z" />
<glyph unicode="&#x2018;" horiz-adv-x="405" d="M158 1083q0 117 89.5 207.5t235.5 122.5l-12 -90q-135 -45 -135 -176q80 -36 80 -105q0 -54 -36 -87t-93 -33q-55 0 -92 46t-37 115z" />
<glyph unicode="&#x2019;" horiz-adv-x="405" d="M123 924l12 90q135 45 135 176q-80 36 -80 104q0 54 36 87.5t93 33.5q55 0 92.5 -46.5t37.5 -115.5q0 -117 -89.5 -207t-236.5 -122z" />
<glyph unicode="&#x201a;" horiz-adv-x="405" d="M-49 -295l12 90q135 45 135 176q-80 36 -80 105q0 54 36 87.5t93 33.5q55 0 92 -46.5t37 -115.5q0 -117 -89.5 -207.5t-235.5 -122.5z" />
<glyph unicode="&#x201c;" horiz-adv-x="831" d="M133 1083q0 117 89.5 207.5t236.5 122.5l-13 -90q-135 -45 -135 -176q80 -36 80 -105q0 -54 -36 -87t-93 -33q-55 0 -92 46t-37 115zM573 1083q0 117 89.5 207.5t236.5 122.5l-12 -90q-135 -45 -135 -176q79 -36 79 -105q0 -54 -36 -87t-93 -33q-55 0 -92 46t-37 115z " />
<glyph unicode="&#x201d;" horiz-adv-x="831" d="M127 924l12 90q135 45 135 176q-79 36 -79 104q0 54 36 87.5t93 33.5q55 0 92 -46.5t37 -115.5q0 -117 -89.5 -207t-236.5 -122zM567 924l13 90q135 45 135 176q-80 36 -80 104q0 54 36 87.5t93 33.5q55 0 92 -46.5t37 -115.5q0 -117 -89.5 -207t-236.5 -122z" />
<glyph unicode="&#x201e;" horiz-adv-x="831" d="M-49 -295l12 90q135 45 135 176q-80 36 -80 105q0 54 36 87.5t93 33.5q55 0 92 -46.5t37 -115.5q0 -117 -89.5 -207.5t-235.5 -122.5zM391 -295l12 90q136 46 136 176q-80 36 -80 105q0 54 36 87.5t93 33.5q55 0 92 -46.5t37 -115.5q0 -117 -89.5 -207.5t-236.5 -122.5z " />
<glyph unicode="&#x2022;" horiz-adv-x="724" d="M139 698q0 104 75 179t179 75t179 -75t75 -179t-75 -179t-179 -75t-179 75t-75 179z" />
<glyph unicode="&#x2026;" horiz-adv-x="2048" d="M158 102q0 51 35 86t86 35t86.5 -35t35.5 -86t-35.5 -85.5t-86.5 -34.5t-86 34.5t-35 85.5zM840 104q0 51 36 87t87 36t86.5 -36t35.5 -87t-35.5 -86.5t-86.5 -35.5t-87 35.5t-36 86.5zM1524 104q0 51 35.5 87t87.5 36q51 0 85.5 -36t34.5 -87t-34.5 -86.5t-85.5 -35.5 q-52 0 -87.5 35.5t-35.5 86.5z" />
<glyph unicode="&#x202f;" horiz-adv-x="372" />
<glyph unicode="&#x2039;" horiz-adv-x="468" d="M0 459l344 461h158l-355 -482l172 -438h-139z" />
<glyph unicode="&#x203a;" horiz-adv-x="468" d="M-74 0l355 481l-172 439h139l180 -459l-344 -461h-158z" />
<glyph unicode="&#x205f;" horiz-adv-x="465" />
<glyph unicode="&#x20ac;" horiz-adv-x="1177" d="M51 498l29 147h121q4 59 14 109h-137l28 147h152q51 136 139 239t193 161t214.5 86t221.5 28q87 0 209 -20l-33 -178q-117 22 -190 22q-184 0 -331 -87.5t-222 -250.5h577l-28 -147h-598q-15 -93 -17 -109h594l-29 -147h-565q3 -45 12 -88t30 -90t51 -82t80 -57.5 t112 -22.5q180 0 391 135l-27 -215q-187 -96 -378 -96q-52 0 -105.5 12t-116.5 47.5t-112 90t-85.5 149.5t-43.5 217h-150z" />
<glyph unicode="&#x2122;" horiz-adv-x="2048" d="M143 1346v120h666v-120h-266v-695h-135v695h-265zM901 651v815h201l203 -651h4l196 651h197v-815h-125v684h-4l-205 -684h-123l-215 695h-4v-695h-125z" />
<glyph unicode="&#xe000;" horiz-adv-x="921" d="M0 0v922h922v-922h-922z" />
</font>
</defs>
</svg>
