<?xml version="1.0" standalone="no"?>
<!DOCTYPE svg PUBLIC "-//W3C//DTD SVG 1.1//EN" "http://www.w3.org/Graphics/SVG/1.1/DTD/svg11.dtd" >
<svg xmlns="http://www.w3.org/2000/svg">
<metadata></metadata>
<defs>
<font id="gill_sans_stdbold" horiz-adv-x="681" >
<font-face units-per-em="2048" ascent="1397" descent="-651" />
<missing-glyph horiz-adv-x="569" />
<glyph unicode="&#xfb01;" horiz-adv-x="1216" d="M41 741v203h125q0 471 420 471q73 0 133 -18v-234q-43 6 -74 6q-109 0 -145.5 -50t-36.5 -175h190v-203h-190v-741h-297v741h-125zM780 1255q0 66 48 113t114 47t113 -47t47 -113t-47 -113.5t-113 -47.5t-114 47.5t-48 113.5zM793 0v944h297v-944h-297z" />
<glyph unicode="&#xfb02;" horiz-adv-x="1216" d="M43 741v203h123q0 229 99 350t321 121q73 0 133 -18v-234q-43 6 -74 6q-109 0 -145.5 -50t-36.5 -175h190v-203h-190v-741h-297v741h-123zM793 0v1397h297v-1397h-297z" />
<glyph horiz-adv-x="2048" />
<glyph horiz-adv-x="2048" />
<glyph unicode="&#xd;" horiz-adv-x="2048" />
<glyph unicode=" "  horiz-adv-x="569" />
<glyph unicode="&#x09;" horiz-adv-x="569" />
<glyph unicode="&#xa0;" horiz-adv-x="569" />
<glyph unicode="!" horiz-adv-x="555" d="M100 160q0 73 52.5 125.5t126.5 52.5q73 0 125.5 -52t52.5 -126t-52.5 -126t-125.5 -52q-74 0 -126.5 52.5t-52.5 125.5zM106 1194q0 106 45 163.5t128 57.5q82 0 126 -57t44 -164q0 -115 -40 -367t-63 -331q-13 -49 -25 -61.5t-42 -12.5q-33 0 -46 15t-26 71 q-30 123 -65.5 331.5t-35.5 354.5z" />
<glyph unicode="&#x22;" horiz-adv-x="980" d="M109 1219v247h276v-247l-49 -275h-178zM596 1219v247h276v-247l-49 -275h-178z" />
<glyph unicode="#" horiz-adv-x="1196" d="M-12 311v224h194l56 268h-250v223h297l77 371h232l-78 -371h315l78 371h228l-78 -371h151v-223h-196l-56 -268h252v-224h-301l-78 -370h-227l76 370h-313l-76 -370h-234l78 370h-147zM414 535h313l55 268h-313z" />
<glyph unicode="$" horiz-adv-x="1110" d="M92 977q0 144 103.5 244.5t269.5 119.5v74h172v-74q146 -6 319 -104v-252q-83 61 -154.5 91t-164.5 44v-332q188 -58 289.5 -171.5t101.5 -243.5q0 -151 -103 -255t-288 -136v-226h-172v226q-74 9 -183.5 52.5t-175.5 88.5v242q188 -143 359 -172v393 q-194 45 -283.5 148.5t-89.5 242.5zM328 989q0 -95 137 -139v270q-64 -15 -100.5 -50t-36.5 -81zM637 197q72 15 115 59t43 102t-41 103t-117 71v-335z" />
<glyph unicode="%" horiz-adv-x="1472" d="M49 1085q0 138 96.5 234t233.5 96t233.5 -96t96.5 -234q0 -135 -97 -232t-233 -97t-233 97t-97 232zM160 -16l983 1431h164l-977 -1431h-170zM233 1085q0 -62 43 -107.5t103 -45.5q61 0 103 44t42 109q0 63 -42.5 108.5t-102.5 45.5q-62 0 -104 -44t-42 -110zM762 311 q0 138 96.5 234t233.5 96t233 -96t96 -234q0 -135 -96.5 -232t-232.5 -97t-233 97t-97 232zM946 311q0 -62 43 -107.5t103 -45.5q61 0 103 44t42 109q0 63 -42.5 108.5t-102.5 45.5q-62 0 -104 -44t-42 -110z" />
<glyph unicode="&#x26;" horiz-adv-x="1536" d="M80 350q0 120 76 216t237 179q-67 95 -97 162.5t-30 147.5q0 157 121 258.5t307 101.5q178 0 291 -93t113 -239q0 -205 -260 -358l190 -219q91 91 160 219h299q-121 -276 -281 -418l281 -307h-424l-102 111q-204 -129 -439 -129q-190 0 -316 105t-126 263zM408 377 q0 -67 52 -115.5t124 -48.5q47 0 105.5 21.5t109.5 56.5l-248 274q-143 -92 -143 -188zM567 1077q0 -38 33.5 -89.5t85.5 -96.5q75 44 107 84.5t32 91.5t-36 84t-93 33t-93 -30.5t-36 -76.5z" />
<glyph unicode="'" horiz-adv-x="491" d="M109 1219v247h276v-247l-49 -275h-178z" />
<glyph unicode="(" horiz-adv-x="788" d="M92 473q0 265 130.5 521t342.5 421h211q-197 -219 -280.5 -449.5t-83.5 -492.5q0 -261 83 -490.5t281 -453.5h-211q-215 169 -344 423.5t-129 520.5z" />
<glyph unicode=")" horiz-adv-x="788" d="M12 -471q198 226 281.5 455t83.5 489q0 262 -83.5 492t-281.5 450h211q212 -165 342.5 -421t130.5 -521t-129 -518t-344 -426h-211z" />
<glyph unicode="*" horiz-adv-x="960" d="M54.5 876q7.5 24 41.5 31l312 68v4l-312 70q-31 8 -40.5 29t5.5 52l62 117q14 26 23.5 33t27.5 -2.5t51 -42.5l203 -209l25 23l-91 290q-24 76 58 76h119q44 0 57.5 -17.5t1.5 -58.5l-90 -290l24 -23l203 209q32 32 47 41t27.5 2t28.5 -37l51 -92q24 -44 18 -67.5 t-43 -32.5l-311 -70v-4l311 -68q35 -7 42.5 -33t-13.5 -61l-53 -96q-23 -41 -38.5 -43.5t-49.5 31.5l-220 225l-24 -23l90 -291q23 -75 -53 -75h-125q-41 0 -56 16t-2 59l91 291l-25 23l-203 -209q-21 -21 -34.5 -31.5t-26 -13t-22 5.5t-19.5 27l-57 108q-19 35 -11.5 59z " />
<glyph unicode="+" horiz-adv-x="1196" d="M86 592v262h381v381h262v-381h381v-262h-381v-381h-262v381h-381z" />
<glyph unicode="," horiz-adv-x="555" d="M90 131q0 70 48 116t120 46q91 0 148 -65.5t57 -168.5q0 -154 -105 -272t-256 -133v63q46 41 74 117.5t19 147.5q-55 22 -80 57.5t-25 91.5z" />
<glyph unicode="-" d="M74 338v272h534v-272h-534z" />
<glyph unicode="." horiz-adv-x="555" d="M98 160q0 74 52 126t126 52t126.5 -52.5t52.5 -125.5t-52.5 -125.5t-126.5 -52.5t-126 52t-52 126z" />
<glyph unicode="/" horiz-adv-x="575" d="M0 -18l346 1433h211l-350 -1433h-207z" />
<glyph unicode="0" horiz-adv-x="1130" d="M90 698q0 346 130 531.5t347 185.5q153 0 260.5 -92.5t159 -250.5t51.5 -367q0 -125 -17 -232.5t-53.5 -198.5t-90.5 -155.5t-132 -100.5t-174 -36q-158 0 -267.5 92t-161.5 250.5t-52 373.5zM401 684q0 -224 37 -332t129 -108q95 0 127.5 119t32.5 364 q0 219 -35.5 322.5t-126.5 103.5q-36 0 -62.5 -15t-44.5 -46.5t-29.5 -69.5t-17.5 -95t-8 -112.5t-2 -130.5z" />
<glyph unicode="1" horiz-adv-x="1130" d="M406 0v1397h309v-1397h-309z" />
<glyph unicode="2" horiz-adv-x="1130" d="M111 0v39q190 233 389 539q84 128 117.5 214.5t33.5 170.5q0 82 -54 141t-132 59q-73 0 -162 -46t-174 -128v293q115 72 203.5 102.5t187.5 30.5q206 0 324.5 -105.5t118.5 -291.5q0 -252 -379 -733h450v-285h-923z" />
<glyph unicode="3" horiz-adv-x="1130" d="M119 61v271q161 -111 295 -111q97 0 158 51t61 134q0 85 -60 139t-157 57v246q91 0 141.5 50t50.5 116q0 71 -56 116.5t-142 45.5q-114 0 -256 -68v246q137 61 319 61q198 0 322.5 -95t124.5 -247q0 -102 -53 -185t-154 -138q124 -48 184.5 -141.5t60.5 -217.5 q0 -187 -135 -298t-362 -111q-190 0 -342 79z" />
<glyph unicode="4" horiz-adv-x="1130" d="M84 344v223l657 848h197v-848h94v-223h-94v-344h-309v344h-545zM330 567h299v381h-4z" />
<glyph unicode="5" horiz-adv-x="1130" d="M131 57v254q162 -90 297 -90q97 0 159 55t62 140q0 120 -121 171.5t-325 12.5v797h725v-281h-447v-260q115 8 210 -24t156.5 -92.5t94.5 -141.5t33 -172q0 -203 -137 -323.5t-369 -120.5q-89 0 -187.5 21.5t-150.5 53.5z" />
<glyph unicode="6" horiz-adv-x="1130" d="M90 477q0 126 45.5 255.5t145.5 291.5l241 391h344l-323 -528q54 17 110.5 12t109 -22.5t98.5 -56t80.5 -89t54.5 -121t20 -151.5q0 -206 -132 -341.5t-331 -135.5q-206 0 -334.5 137t-128.5 358zM401 446q0 -96 42 -149t116 -53q72 0 115 56t43 151q0 94 -44 151 t-116 57t-114 -57.5t-42 -155.5z" />
<glyph unicode="7" horiz-adv-x="1130" d="M131 1118v279h924v-17l-504 -1398l-279 106l375 1030h-516z" />
<glyph unicode="8" horiz-adv-x="1130" d="M98 397q0 241 211 340q-92 60 -132 129t-40 170q0 170 117 274.5t307 104.5q108 0 193.5 -34t136.5 -89.5t77.5 -121.5t26.5 -136q0 -195 -170 -297q209 -108 209 -338q0 -189 -128 -303t-343 -114q-207 0 -336 115t-129 300zM410 410q0 -101 43.5 -162.5t115.5 -61.5 q69 0 111.5 58.5t42.5 156.5q0 102 -42.5 163t-113.5 61q-72 0 -114.5 -58.5t-42.5 -156.5zM436 1020q0 -91 36 -144t97 -53q60 0 93.5 53.5t33.5 147.5q0 90 -34 138t-97 48q-60 0 -94.5 -50.5t-34.5 -139.5z" />
<glyph unicode="9" horiz-adv-x="1130" d="M102 932q0 206 133.5 344.5t331.5 138.5t329.5 -138.5t131.5 -348.5q0 -130 -43 -259t-141 -288l-246 -399h-342l322 524q-94 -28 -180 -2t-152 84t-105 149.5t-39 194.5zM401 942q0 -94 44 -152.5t116 -58.5q68 0 112 59t44 150q0 98 -42 155.5t-114 57.5 q-69 0 -114.5 -59.5t-45.5 -151.5z" />
<glyph unicode=":" horiz-adv-x="555" d="M98 160q0 74 52 126t126 52t126.5 -52.5t52.5 -125.5t-52.5 -125.5t-126.5 -52.5t-126 52t-52 126zM98 766q0 74 52 126t126 52t126.5 -52.5t52.5 -125.5t-52.5 -125.5t-126.5 -52.5t-126 52t-52 126z" />
<glyph unicode=";" horiz-adv-x="555" d="M90 131q0 70 48 116t120 46q91 0 148 -65.5t57 -168.5q0 -154 -105 -272t-256 -133v63q46 41 74 117.5t19 147.5q-55 22 -80 57.5t-25 91.5zM98 766q0 74 52 126t126 52t126.5 -52.5t52.5 -125.5t-52.5 -125.5t-126.5 -52.5t-126 52t-52 126z" />
<glyph unicode="&#x3c;" horiz-adv-x="1196" d="M96 604v246l1006 436v-280l-703 -279l703 -278v-281z" />
<glyph unicode="=" horiz-adv-x="1196" d="M86 369v262h1024v-262h-1024zM86 815v262h1024v-262h-1024z" />
<glyph unicode="&#x3e;" horiz-adv-x="1196" d="M94 168v281l703 278l-703 279v280l1006 -436v-246z" />
<glyph unicode="?" horiz-adv-x="768" d="M51 1122l51 252q119 41 238 41q157 0 247.5 -78.5t90.5 -208.5q0 -86 -30.5 -162.5t-74 -133t-87.5 -109.5t-74.5 -116t-30.5 -130v-24q0 -22 -13 -27.5t-51 -5.5q-37 0 -53 16q-15 15 -36 85.5t-21 127.5q0 68 25 136t55 113.5t55 98t25 93.5q0 49 -32 76.5t-89 27.5 q-51 0 -86.5 -14.5t-89.5 -57.5h-19zM145 160q0 73 52.5 125.5t126.5 52.5t126 -52t52 -126t-52 -126t-126 -52t-126.5 52.5t-52.5 125.5z" />
<glyph unicode="@" horiz-adv-x="2004" d="M61 471q0 97 16.5 194.5t54 199t93.5 192t139.5 170.5t186.5 138.5t240.5 92t295.5 33.5q249 0 442.5 -95.5t300.5 -269.5t107 -399q0 -135 -48.5 -265.5t-132.5 -233t-210 -165.5t-270 -63q-80 0 -123.5 27.5t-58.5 87.5q-115 -115 -271 -115q-170 0 -277.5 117 t-107.5 303q0 87 21.5 178.5t67 178t108 155t151 110t189.5 41.5q88 0 157.5 -34.5t110.5 -100.5l25 111h264l-160 -758q-19 -96 33 -96q32 0 76.5 25t92.5 73.5t89 111t67.5 146.5t26.5 170q0 80 -20.5 157.5t-71.5 155t-127 136t-196.5 95t-270.5 36.5q-177 0 -321 -52.5 t-236.5 -137t-155.5 -196t-89.5 -224.5t-26.5 -228q0 -145 45 -265.5t123.5 -204.5t186.5 -141.5t231 -84.5t259 -27q478 0 691 268h213q-107 -217 -334 -332.5t-545 -115.5q-104 0 -207 15t-208 48.5t-197.5 82.5t-173.5 122.5t-139.5 164t-92 210.5t-33.5 258zM696 416 q0 -106 49.5 -170t131.5 -64q56 0 104 26.5t80.5 70.5t58 97t40 109t21.5 102.5t7 82.5q0 107 -51 170t-136 63q-73 0 -133.5 -45.5t-96.5 -118.5t-55.5 -156.5t-19.5 -166.5z" />
<glyph unicode="A" horiz-adv-x="1599" d="M6 0l563 1397h404l620 -1397h-374l-115 276h-625l-104 -276h-369zM571 520h430l-225 543z" />
<glyph unicode="B" horiz-adv-x="1429" d="M156 0v1397h604q118 0 210.5 -32.5t145.5 -84.5t80 -112t27 -121q0 -87 -51.5 -161.5t-139.5 -117.5q145 -37 221 -133.5t76 -224.5q0 -53 -11.5 -104.5t-45 -108.5t-86 -99t-143 -70t-207.5 -28h-680zM504 256h196q143 0 202 40t59 132q0 75 -59 116.5t-154 41.5h-244 v-330zM504 842h182q89 0 133.5 44.5t44.5 106.5q0 61 -44.5 104.5t-133.5 43.5h-182v-299z" />
<glyph unicode="C" horiz-adv-x="1579" d="M96 694q0 141 57 270t161.5 230t266 161t355.5 60q300 0 506 -123v-311q-256 143 -481 143q-223 0 -364.5 -119t-141.5 -305q0 -188 139.5 -308t357.5 -120q66 0 124 9t125.5 33.5t115 45.5t141.5 66v-305q-148 -76 -271.5 -107.5t-277.5 -31.5q-158 0 -292.5 39.5 t-229 107.5t-161 159t-98.5 194t-32 212z" />
<glyph unicode="D" horiz-adv-x="1642" d="M154 0v1397h616q150 0 276 -36t216.5 -100.5t154 -152.5t94.5 -192t31 -220q0 -153 -49 -278.5t-146.5 -219.5t-254.5 -146t-361 -52h-577zM502 256h227q101 0 181 26.5t130.5 69.5t83.5 102t46.5 119t13.5 125q0 93 -26 171t-79 140t-143.5 97t-210.5 35h-223v-885z" />
<glyph unicode="E" horiz-adv-x="1300" d="M160 0v1397h1016v-256h-668v-293h637v-256h-637v-336h682v-256h-1030z" />
<glyph unicode="F" horiz-adv-x="1236" d="M156 0v1397h962v-256h-614v-312h614v-256h-614v-573h-348z" />
<glyph unicode="G" horiz-adv-x="1665" d="M96 696q0 211 106 374.5t298 254t438 90.5q153 0 298.5 -31t252.5 -84v-305q-267 129 -522 129q-110 0 -198.5 -26t-146 -69t-96 -101t-55 -118.5t-16.5 -125.5q0 -186 133 -299t350 -113q65 0 110 9.5t121 40.5v163h-202v256h551v-571q-77 -81 -247 -134.5t-341 -53.5 q-241 0 -431 91t-296.5 254t-106.5 369z" />
<glyph unicode="H" horiz-adv-x="1705" d="M158 0v1397h348v-561h696v561h348v-1397h-348v565h-696v-565h-348z" />
<glyph unicode="I" d="M168 0v1397h348v-1397h-348z" />
<glyph unicode="J" d="M-66 -129q29 -5 55 -5q84 0 131 52q62 69 62 205v1274h348v-1268q0 -279 -137 -416q-72 -72 -179 -101q-73 -19 -178 -19q-47 0 -102 4v274z" />
<glyph unicode="K" horiz-adv-x="1472" d="M154 0v1397h348v-633h4l440 633h383l-455 -656l617 -741h-436l-553 655v-655h-348z" />
<glyph unicode="L" horiz-adv-x="1259" d="M156 0v1397h348v-1141h717v-256h-1065z" />
<glyph unicode="M" horiz-adv-x="1812" d="M156 0v1397h303l448 -518l449 518h303v-1397h-348v872l-377 -438h-53l-377 438v-872h-348z" />
<glyph unicode="N" horiz-adv-x="1728" d="M158 0v1397h319l746 -854v854h348v-1397h-293l-772 895v-895h-348z" />
<glyph unicode="O" horiz-adv-x="1792" d="M96 698q0 103 32 204.5t99 194t160 163.5t225 113t285 42t284.5 -42.5t224.5 -113.5t159.5 -163.5t98.5 -194t32 -203.5q0 -135 -55.5 -263t-155 -229t-253 -162.5t-335.5 -61.5q-149 0 -279.5 40t-224.5 109.5t-162 160.5t-101.5 195t-33.5 211zM455 698 q0 -192 121.5 -309t320.5 -117q198 0 319 117t121 309t-121 309t-319 117q-199 0 -320.5 -117t-121.5 -309z" />
<glyph unicode="P" horiz-adv-x="1343" d="M170 0v1397h623q114 0 205.5 -37.5t146 -98.5t82.5 -132.5t28 -145.5q0 -61 -16.5 -119.5t-53 -114t-89 -97t-130.5 -66.5t-171 -25h-277v-561h-348zM518 817h162q116 0 166.5 40.5t50.5 121.5q0 89 -57.5 125.5t-198.5 36.5h-123v-324z" />
<glyph unicode="Q" horiz-adv-x="1792" d="M96 690q0 135 56.5 264.5t157.5 232t255.5 165.5t335.5 63q152 0 284 -43t224.5 -114.5t159 -164.5t98 -192.5t31.5 -198.5q0 -153 -65 -291.5t-183.5 -240t-271.5 -147.5q117 -68 262 -93q61 -10 116 -10q75 0 138 19l22 -29l-272 -232q-191 13 -391 99.5t-383 222.5 q-100 18 -200.5 75.5t-184.5 144t-136.5 210.5t-52.5 260zM455 694q0 -193 121 -310.5t321 -117.5q192 0 317 114t125 314q0 136 -61 235t-160 147t-221 48q-199 0 -320.5 -118t-121.5 -312z" />
<glyph unicode="R" horiz-adv-x="1386" d="M156 0v1397h624q104 0 191.5 -33.5t145 -89.5t89 -128t31.5 -151q0 -231 -240 -342q30 -15 55 -36t49.5 -54t44 -67t46.5 -90.5t50.5 -108t62.5 -137t75 -160.5h-383q-31 62 -67.5 144.5t-59.5 136.5t-54.5 113.5t-60 93.5t-67.5 56.5t-84 22.5h-100v-567h-348zM504 823 h184q81 0 136 38.5t55 121.5q0 158 -199 158h-176v-318z" />
<glyph unicode="S" horiz-adv-x="1236" d="M88 1014q0 182 145 291.5t388 109.5q223 0 473 -108v-273q-153 68 -253.5 96.5t-189.5 28.5q-94 0 -149.5 -31t-55.5 -84q0 -33 24.5 -61t65.5 -49t94.5 -41t112.5 -42t117.5 -47.5t112 -62.5t94.5 -82t65.5 -110t24.5 -143q0 -197 -149 -310.5t-387 -113.5 q-88 0 -159 9.5t-136 32.5t-102.5 40t-106.5 53v301q151 -100 256.5 -140t220.5 -40q99 0 152 33.5t53 95.5q0 41 -30.5 73.5t-80.5 53.5t-114 46t-130.5 48t-130.5 61t-114 84t-80.5 118.5t-30.5 162.5z" />
<glyph unicode="T" horiz-adv-x="1472" d="M57 1141v256h1360v-256h-506v-1141h-348v1141h-506z" />
<glyph unicode="U" horiz-adv-x="1685" d="M143 602v795h349v-803q0 -148 96.5 -235t249.5 -87q72 0 133.5 19.5t112 59t79.5 108.5t29 159v779h348v-793q0 -135 -36 -242t-99 -177.5t-152.5 -116.5t-190.5 -66t-220 -20q-124 0 -229 22.5t-192.5 71.5t-148.5 121t-95 175t-34 230z" />
<glyph unicode="V" horiz-adv-x="1472" d="M0 1397h379l369 -797l350 797h375l-646 -1415h-151z" />
<glyph unicode="W" horiz-adv-x="2390" d="M-2 1397h369l329 -772l359 772h280l359 -772l327 772h369l-612 -1415h-150l-434 911l-432 -911h-150z" />
<glyph unicode="X" horiz-adv-x="1665" d="M8 0l592 723l-559 674h451l333 -412l328 412h442l-546 -674l606 -723h-451l-379 461l-372 -461h-445z" />
<glyph unicode="Y" horiz-adv-x="1449" d="M0 1397h422l303 -439l305 439h420l-551 -744v-653h-348v653z" />
<glyph unicode="Z" horiz-adv-x="1429" d="M8 0l768 1141h-715v256h1303l-762 -1141h762v-256h-1356z" />
<glyph unicode="[" horiz-adv-x="897" d="M172 -453v1850h686v-223h-389v-1403h389v-224h-686z" />
<glyph unicode="\" horiz-adv-x="575" d="M14 1415h211l346 -1433h-206z" />
<glyph unicode="]" horiz-adv-x="897" d="M39 -229h389v1403h-389v223h686v-1850h-686v224z" />
<glyph unicode="^" horiz-adv-x="1196" d="M115 598l377 799h221l366 -799h-284l-197 489l-197 -489h-286z" />
<glyph unicode="_" horiz-adv-x="1024" d="M-12 -154h1048v-102h-1048v102z" />
<glyph unicode="`" d="M16 1384h338l152 -299h-152z" />
<glyph unicode="a" horiz-adv-x="1087" d="M68 213q0 47 10 84t29.5 67t52 55t72.5 46t97 42.5t120.5 42t146.5 46.5q7 2 11 3t10.5 3t11.5 4q1 8 1 16q0 61 -35 99q-39 43 -130 43q-89 0 -183 -43t-165 -115v242q186 115 409 115q188 0 294 -69t106 -218v-430q0 -66 49 -66q36 0 112 53v-165q-62 -37 -140.5 -61.5 t-137.5 -24.5q-74 0 -112.5 24.5t-53.5 81.5q-156 -106 -311 -106q-111 0 -187.5 69.5t-76.5 161.5zM369 258q0 -41 28 -70.5t68 -29.5q87 0 164 71v228q-144 -52 -202 -92.5t-58 -106.5z" />
<glyph unicode="b" horiz-adv-x="1193" d="M119 0v1397h297v-506q71 41 122.5 56.5t120.5 15.5q204 0 332.5 -135.5t128.5 -352.5q0 -218 -123 -355.5t-317 -137.5q-139 0 -264 90v-72h-297zM416 260q92 -80 176 -80q105 0 166 79t61 220q0 142 -65.5 213.5t-165.5 71.5q-43 0 -81.5 -14.5t-90.5 -51.5v-438z" />
<glyph unicode="c" horiz-adv-x="1024" d="M82 469q0 217 150.5 355.5t383.5 138.5q154 0 318 -62v-221q-120 63 -242 63q-134 0 -213.5 -74t-79.5 -198q0 -126 77.5 -202t205.5 -76q54 0 110.5 14t155.5 51v-213q-174 -63 -319 -63q-249 0 -398 133t-149 354z" />
<glyph unicode="d" horiz-adv-x="1193" d="M72 473q0 217 127.5 353.5t330.5 136.5q123 0 246 -60v494h297v-1397h-297v76q-116 -94 -262 -94q-191 0 -316.5 139.5t-125.5 351.5zM373 467q0 -130 61.5 -208.5t165.5 -78.5q89 0 176 78v451q-33 24 -80 39.5t-86 15.5q-113 0 -175 -78t-62 -219z" />
<glyph unicode="e" horiz-adv-x="1130" d="M76 469q0 217 139.5 355.5t357.5 138.5q103 0 193.5 -36.5t158 -103.5t104.5 -171q33 -91 33 -199q0 -15 -1 -29h-678q7 -126 89 -196t222 -70q90 0 168 30t182 105v-187q-59 -44 -123.5 -71.5t-126.5 -37.5t-94.5 -12.5t-76.5 -2.5q-249 0 -398 133t-149 354zM389 580 h410q-9 96 -64 151t-141 55q-88 0 -142 -54t-63 -152z" />
<glyph unicode="f" horiz-adv-x="618" d="M31 741v203h135v47q0 203 114 313.5t300 110.5q45 0 180 -18v-240q-94 12 -133 12q-164 0 -164 -165v-60h135v-203h-135v-741h-297v741h-135z" />
<glyph unicode="g" horiz-adv-x="1110" d="M57 -197q0 172 252 236v4q-114 33 -114 123q0 28 13.5 51.5t30.5 37t44.5 25t43.5 16t40 9.5v4q-47 7 -92.5 29t-85 57.5t-63.5 89t-24 115.5q0 39 10.5 81t40.5 90.5t75 85.5t122 62t174 25h561v-199h-135q47 -81 47 -157q0 -121 -86 -207q-46 -46 -109.5 -72 t-119 -32.5t-105.5 -11.5t-79 -19t-29 -45q0 -30 38 -44t99.5 -19t128.5 -11t137 -30.5t113 -67.5q76 -76 76 -183q0 -160 -132 -238.5t-368 -78.5q-115 0 -204.5 16.5t-145 43.5t-91 64t-49.5 73.5t-14 76.5zM332 -184q0 -54 62.5 -82.5t180.5 -28.5q95 0 154 35t59 84 q0 51 -60 77.5t-171 26.5q-105 0 -165 -30t-60 -82zM379 596q0 -69 51 -119.5t121 -50.5t120 53t50 127q0 66 -47.5 114t-122.5 48q-73 0 -122.5 -50t-49.5 -122z" />
<glyph unicode="h" horiz-adv-x="1193" d="M127 0v1397h297v-592h4q125 158 299 158q67 0 127 -21t110 -63t79.5 -113.5t29.5 -163.5v-602h-297v539q0 103 -41 154.5t-112 51.5q-52 0 -99 -34t-100 -109v-602h-297z" />
<glyph unicode="i" horiz-adv-x="555" d="M113 1251q0 68 48 116t115 48q68 0 116 -48.5t48 -115.5t-48 -115.5t-116 -48.5q-67 0 -115 48t-48 116zM129 0v944h297v-944h-297z" />
<glyph unicode="j" horiz-adv-x="555" d="M-18 -203q81 13 117 72.5t36 175.5v899h297v-971q0 -93 -22.5 -168.5t-58.5 -123.5t-84.5 -82t-95 -49.5t-95.5 -20.5zM119 1251q0 67 48.5 115.5t115.5 48.5t115 -48t48 -116t-48 -116t-115 -48t-115.5 48.5t-48.5 115.5z" />
<glyph unicode="k" horiz-adv-x="1130" d="M129 0v1397h297v-920h4l367 467h348l-369 -467l385 -477h-364l-367 465h-4v-465h-297z" />
<glyph unicode="l" horiz-adv-x="555" d="M129 0v1397h297v-1397h-297z" />
<glyph unicode="m" horiz-adv-x="1961" d="M129 0v944h297v-121q72 67 158 107q79 33 170 33q242 0 340 -201q93 106 180 153.5t192 47.5q163 0 266 -98.5t103 -258.5v-606h-297v553q0 101 -46 156t-128 55q-129 0 -234 -160v-604h-296v559q0 55 -15.5 96.5t-42 64t-57.5 33.5t-66 11q-117 0 -227 -131v-633h-297z " />
<glyph unicode="n" horiz-adv-x="1193" d="M123 0v944h297v-135q70 81 143 117.5t164 36.5q47 0 92.5 -10.5t92 -37t81 -66.5t56.5 -104.5t22 -144.5v-600h-297v575q0 95 -40 142t-107 47q-56 0 -102.5 -34.5t-104.5 -121.5v-608h-297z" />
<glyph unicode="o" horiz-adv-x="1216" d="M76 473q0 117 44 212t118.5 154.5t170 91.5t201.5 32q73 0 144.5 -16t142 -53.5t124 -92.5t87 -140.5t33.5 -189.5q0 -108 -35.5 -194.5t-91 -140t-128 -89.5t-141 -50.5t-135.5 -14.5q-234 0 -384 135.5t-150 355.5zM393 473q0 -169 60.5 -242t156.5 -73 q104 0 158.5 82.5t54.5 238.5q0 144 -52 225.5t-161 81.5q-100 0 -158.5 -79t-58.5 -234z" />
<glyph unicode="p" horiz-adv-x="1193" d="M117 -471v1415h297v-82q121 101 270 101q185 0 311.5 -139t126.5 -341q0 -227 -127 -364t-338 -137q-132 0 -243 65v-518h-297zM414 242q85 -62 172 -62q109 0 172 77.5t63 209.5q0 135 -58.5 210t-164.5 75q-47 0 -88 -16.5t-96 -59.5v-434z" />
<glyph unicode="q" horiz-adv-x="1193" d="M72 483q0 205 125 342.5t313 137.5q150 0 268 -101v82h297v-1415h-297v518q-108 -65 -243 -65q-209 0 -336 137.5t-127 363.5zM373 467q0 -132 62.5 -209.5t170.5 -77.5q87 0 172 62v434q-54 43 -94 59.5t-90 16.5q-105 0 -163 -75t-58 -210z" />
<glyph unicode="r" horiz-adv-x="917" d="M131 0v944h297v-270h4q129 289 301 289q44 0 88 -19.5t109 -66.5l-82 -263q-111 70 -176 70q-78 0 -134.5 -68.5t-109.5 -207.5v-408h-297z" />
<glyph unicode="s" horiz-adv-x="874" d="M76 672q0 130 108 210.5t283 80.5q165 0 305 -70v-211q-87 54 -173.5 79t-141.5 25q-107 0 -107 -73q0 -21 26 -39.5t67 -35.5t91 -36t100.5 -47t91.5 -62t67 -87t26 -117q0 -148 -100 -227.5t-285 -79.5q-102 0 -200 23.5t-138 45.5v209q61 -26 99 -40t95.5 -27 t110.5 -13q66 0 105 19t39 51q0 27 -26 49.5t-67 40t-91 36t-100.5 44t-91.5 57.5t-67 82t-26 113z" />
<glyph unicode="t" horiz-adv-x="831" d="M25 741v58l395 442h37v-297h344v-203h-344v-389q0 -70 38.5 -110.5t106.5 -40.5q92 0 199 55v-215q-143 -59 -275 -59q-77 0 -140.5 18.5t-115.5 58.5t-81 110.5t-29 166.5v405h-135z" />
<glyph unicode="u" horiz-adv-x="1193" d="M123 340v604h297v-584q0 -93 42 -136.5t107 -43.5q67 0 123 46t80 116v602h299v-944h-297v135q-70 -81 -142.5 -117t-162.5 -36q-149 0 -247.5 92t-98.5 266z" />
<glyph unicode="v" horiz-adv-x="1044" d="M4 944h318l200 -520l203 520h315l-434 -962h-166z" />
<glyph unicode="w" horiz-adv-x="1599" d="M-2 944h303l199 -520l211 520h180l209 -520l198 520h304l-424 -962h-142l-235 514l-238 -514h-139z" />
<glyph unicode="x" horiz-adv-x="1130" d="M8 0l385 483l-385 461h346l203 -272l193 272h346l-373 -461l401 -483h-344l-223 293l-215 -293h-334z" />
<glyph unicode="y" horiz-adv-x="1044" d="M2 944h317l199 -485l213 485h311l-632 -1397h-316l277 607z" />
<glyph unicode="z" horiz-adv-x="1067" d="M39 0l485 741h-438v203h922l-484 -741h484v-203h-969z" />
<glyph unicode="{" horiz-adv-x="788" d="M59 410v233q124 1 172 76.5t48 228.5v162q0 201 93 287t281 86h90v-240h-12q-50 0 -77.5 -1.5t-52.5 -11t-35 -21.5t-18 -41t-9.5 -61.5t-1.5 -90.5q0 -81 -2 -129.5t-11.5 -107.5t-28 -98t-51.5 -80t-82 -75q49 -34 82 -75t51.5 -80t28 -97.5t11.5 -107t2 -129.5 q0 -58 1.5 -90.5t9.5 -61.5t18 -41t35 -21.5t52.5 -11t77.5 -1.5h12v-240h-90q-188 0 -281 86t-93 287v161q0 153 -48 229t-172 77z" />
<glyph unicode="|" horiz-adv-x="575" d="M176 -512v2048h223v-2048h-223z" />
<glyph unicode="}" horiz-adv-x="788" d="M45 -190h12q50 0 77.5 1.5t52.5 11t35.5 21.5t18.5 41t9.5 61.5t1.5 90.5q0 82 2 130t11.5 107t27.5 97.5t51 79.5t82 75q-49 34 -82 75t-51 80t-27.5 98t-11.5 107t-2 130q0 58 -1.5 90.5t-9.5 61.5t-18.5 41t-35.5 21.5t-52.5 11t-77.5 1.5h-12v240h90q189 0 282 -86.5 t93 -286.5v-162q0 -153 47.5 -228.5t171.5 -76.5v-233q-124 -1 -171.5 -77t-47.5 -229v-161q0 -200 -93 -286.5t-282 -86.5h-90v240z" />
<glyph unicode="~" horiz-adv-x="1196" d="M33 358v269q96 78 172 112.5t155 34.5q59 0 130.5 -25t128 -55t124 -55t119.5 -25q67 0 134.5 34.5t164.5 117.5v-266q-59 -59 -151.5 -103.5t-171.5 -44.5q-56 0 -129.5 25.5t-132.5 55.5t-124.5 55.5t-107.5 25.5q-71 0 -139 -34t-172 -122z" />
<glyph unicode="&#xa1;" horiz-adv-x="555" d="M98 784q0 74 52.5 126.5t125.5 52.5q74 0 126.5 -52.5t52.5 -126.5q0 -73 -52.5 -125.5t-126.5 -52.5t-126 52t-52 126zM106 -250q0 115 40 367.5t63 331.5q13 48 25 60.5t42 12.5q33 0 46 -15t26 -71q30 -123 65.5 -331.5t35.5 -354.5q0 -106 -45 -163.5t-128 -57.5 q-82 0 -126 57t-44 164z" />
<glyph unicode="&#xa2;" horiz-adv-x="1024" d="M84 465q0 114 44 211t124 165t199.5 99.5t261.5 15.5l106 338h146l-113 -362q46 -14 80 -29v-223q-64 35 -141 57l-170 -536q157 -21 325 63v-219q-95 -35 -176.5 -49t-216.5 -14l-117 -369h-145l123 387q-162 53 -246 174.5t-84 290.5zM393 471q0 -137 99 -217l155 489 q-114 -7 -184 -82.5t-70 -189.5z" />
<glyph unicode="&#xa3;" horiz-adv-x="1067" d="M96 -18q1 65 37.5 261t69.5 322h-92v244h157q50 171 100 284.5t121 184.5q76 76 173.5 111.5t187.5 21.5l119 -268q-155 36 -258.5 -39t-153.5 -295h131v-244h-199l-53 -266q34 10 64 10q65 0 159.5 -22.5t157.5 -22.5q54 0 85 6.5t81 28.5v-276q-57 -26 -92 -33.5 t-90 -7.5q-29 0 -164 24.5t-221 24.5t-154.5 -11.5t-165.5 -37.5z" />
<glyph unicode="&#xa4;" horiz-adv-x="1130" d="M45 352l133 133q-55 86 -55 215q0 113 55 215l-133 134l170 170l131 -132q39 18 65.5 28t68.5 19t85 9q119 0 215 -56l133 134l174 -174l-133 -134q56 -101 56 -213q0 -106 -58 -219l133 -133l-170 -170l-135 135q-90 -57 -215 -57q-119 0 -213 55l-133 -133zM362 700 q0 -85 59 -144.5t144 -59.5t145 59.5t60 144.5t-60 144t-145 59t-144 -59t-59 -144z" />
<glyph unicode="&#xa5;" horiz-adv-x="1130" d="M2 1466h309l250 -567h4l256 567h309l-315 -628h264v-224h-374v-118h374v-224h-374v-272h-283v272h-371v224h371v118h-371v224h260z" />
<glyph unicode="&#xa6;" horiz-adv-x="575" d="M176 -358v716h223v-716h-223zM176 666v716h223v-716h-223z" />
<glyph unicode="&#xa7;" horiz-adv-x="1067" d="M51 512q0 202 180 379q-59 83 -77.5 122t-18.5 93q0 144 111.5 226.5t300.5 82.5q188 0 284.5 -63.5t96.5 -159.5q0 -63 -44.5 -107.5t-107.5 -44.5q-55 0 -92 37q-17 17 -28 48t-17 54.5t-30 41.5t-66 18q-51 0 -85 -29.5t-34 -72.5q0 -34 32.5 -71.5t84.5 -74.5 t115 -78t126 -92t115 -107.5t84.5 -132.5t32.5 -159q0 -108 -41 -190.5t-142 -180.5q56 -74 75.5 -122t19.5 -109q0 -135 -106 -213t-292 -78q-169 0 -279 62t-110 159q0 58 46 103t106 45q57 0 90 -33q23 -23 35 -55.5t15 -53t24.5 -36t66.5 -15.5q52 0 84.5 26.5 t32.5 69.5q0 40 -32.5 80.5t-84.5 78t-114.5 78.5t-125 90t-114.5 103t-84.5 127t-32.5 154zM313 592q0 -20 4.5 -39.5t11 -36.5t21.5 -37.5t26 -35t35.5 -37t40.5 -36.5t50 -40.5t53.5 -41.5t62 -47.5t66.5 -50.5q70 75 70 156q0 37 -13.5 71.5t-30.5 60t-58.5 63.5 t-69.5 60.5t-94.5 73.5t-104.5 81q-70 -85 -70 -164z" />
<glyph unicode="&#xa8;" d="M0 1217q0 55 39 94t94 39t94 -39t39 -94q0 -56 -39 -95t-94 -39t-94 39t-39 95zM416 1217q0 55 39 94t94 39t94 -39t39 -94q0 -56 -39 -95t-94 -39t-94 39t-39 95z" />
<glyph unicode="&#xa9;" horiz-adv-x="1515" d="M-8 729q0 209 102.5 385t278.5 278.5t385 102.5t385 -102.5t278.5 -278.5t102.5 -385t-102.5 -385t-278.5 -278.5t-385 -102.5t-385 102.5t-278.5 278.5t-102.5 385zM143 729q0 -125 48.5 -239t131 -196.5t196.5 -131.5t239 -49q167 0 309 82.5t224.5 224.5t82.5 309 t-82.5 308.5t-224.5 223.5t-309 82q-125 0 -239 -48.5t-196.5 -130.5t-131 -196t-48.5 -239zM381 723q0 200 104.5 316t284.5 116q126 0 208 -60t126 -184l-162 -39q-28 72 -71 106t-107 34q-98 0 -152.5 -74t-54.5 -209q0 -134 52.5 -209.5t146.5 -75.5q137 0 186 172 l162 -55q-38 -126 -124.5 -192t-211.5 -66q-177 0 -282 114t-105 306z" />
<glyph unicode="&#xaa;" horiz-adv-x="724" d="M45 977q0 26 10 49.5t24 40.5t41 33.5t48 27t58 23t58.5 18.5t63 17t58.5 16q0 45 -21.5 64.5t-71.5 19.5q-128 0 -235 -110v167q126 72 274 72q36 0 70 -4t71.5 -16t64.5 -30.5t45 -51t18 -74.5v-244q0 -22 3.5 -29.5t14.5 -7.5q24 0 84 37v-116q-100 -56 -191 -56 q-92 0 -114 56q-98 -56 -193 -56q-77 0 -128.5 44t-51.5 110zM262 995q0 -23 14 -38t37 -15q46 0 93 35v121q-86 -28 -115 -48.5t-29 -54.5z" />
<glyph unicode="&#xab;" horiz-adv-x="1216" d="M18 469l330 455h293l-326 -455l326 -455h-293zM571 469l330 455h293l-326 -455l326 -455h-293z" />
<glyph unicode="&#xac;" horiz-adv-x="1196" d="M86 674v262h1022v-698h-262v436h-760z" />
<glyph unicode="&#xad;" d="M74 338v272h534v-272h-534z" />
<glyph unicode="&#xae;" horiz-adv-x="1515" d="M-8 729q0 209 102.5 385t278.5 278.5t385 102.5t385 -102.5t278.5 -278.5t102.5 -385t-102.5 -385t-278.5 -278.5t-385 -102.5t-385 102.5t-278.5 278.5t-102.5 385zM143 729q0 -125 48.5 -239t131 -196.5t196.5 -131.5t239 -49q167 0 309 82.5t224.5 224.5t82.5 309 t-82.5 308.5t-224.5 223.5t-309 82q-125 0 -239 -48.5t-196.5 -130.5t-131 -196t-48.5 -239zM412 319v814h401q125 0 190.5 -63t65.5 -165q0 -93 -58.5 -154t-160.5 -73v-4q53 -19 83 -51.5t91 -139.5l94 -164h-203l-65 134q-50 98 -111 159q-25 25 -52 33t-81 8h-31v-334 h-163zM575 782h170q79 0 114.5 32.5t35.5 80.5q0 111 -168 111h-152v-224z" />
<glyph unicode="&#xaf;" d="M-55 1118v199h792v-199h-792z" />
<glyph unicode="&#xb0;" horiz-adv-x="811" d="M86 1171q0 132 94 226t226 94t225.5 -94t93.5 -226t-93.5 -225.5t-225.5 -93.5t-226 93.5t-94 225.5zM262 1171q0 -60 42 -101.5t102 -41.5t101.5 41.5t41.5 101.5t-41.5 102t-101.5 42t-102 -42t-42 -102z" />
<glyph unicode="&#xb1;" horiz-adv-x="1196" d="M86 0v262h1024v-262h-1024zM86 737v262h381v381h262v-381h381v-262h-381v-381h-262v381h-381z" />
<glyph unicode="&#xb2;" d="M68 680v27q174 195 246.5 297.5t72.5 173.5q0 41 -27.5 68.5t-70.5 27.5q-89 0 -211 -105v174q74 40 127.5 56t113.5 16q127 0 201 -56t74 -151q0 -70 -52 -156t-165 -216h260v-156h-569z" />
<glyph unicode="&#xb3;" d="M66 719v155q60 -37 101.5 -51t88.5 -14q51 0 82 23t31 61q0 85 -127 94v137q54 5 83 26t29 56q0 34 -29.5 56t-76.5 22q-70 0 -162 -45v141q88 35 201 35q122 0 199 -50.5t77 -129.5q0 -105 -117 -166q72 -29 106 -72.5t34 -109.5q0 -97 -86 -157t-224 -60 q-53 0 -96 10.5t-114 38.5z" />
<glyph unicode="&#xb4;" d="M178 1085l152 299h338l-338 -299h-152z" />
<glyph unicode="&#xb5;" horiz-adv-x="1259" d="M139 -360v1304h297v-461q0 -303 189 -303q91 0 143.5 71t52.5 195v498h297v-944h-276v123h-4q-23 -68 -80.5 -104.5t-122.5 -36.5q-67 0 -117.5 35.5t-77.5 97.5h-4v-475h-297z" />
<glyph unicode="&#xb6;" horiz-adv-x="1130" d="M-2 1049q0 85 25.5 158t77 132t139.5 93t204 34h684v-262h-112v-1607h-244v1607h-137v-1607h-244v1046q-186 13 -289.5 121t-103.5 285z" />
<glyph unicode="&#xb7;" horiz-adv-x="555" d="M98 707q0 73 52 125.5t126 52.5t126.5 -52.5t52.5 -125.5t-52.5 -126t-126.5 -53q-73 0 -125.5 52.5t-52.5 126.5z" />
<glyph unicode="&#xb8;" d="M205 -244q91 -3 123 13.5t32 50.5q0 22 -19 39.5t-65 17.5l80 139h123l-26 -63q127 -46 127 -150q0 -76 -58.5 -123t-165.5 -47q-92 0 -151 19v104z" />
<glyph unicode="&#xb9;" d="M236 680v735h213v-735h-213z" />
<glyph unicode="&#xba;" horiz-adv-x="811" d="M53 1116q0 129 101.5 214t253.5 85q154 0 253 -83.5t99 -209.5q0 -132 -98 -215.5t-254 -83.5q-155 0 -255 82.5t-100 210.5zM283 1114q0 -170 127 -170q120 0 120 184q0 166 -127 166q-61 0 -90.5 -44t-29.5 -136z" />
<glyph unicode="&#xbb;" horiz-adv-x="1216" d="M25 14l325 455l-325 455h292l330 -455l-330 -455h-292zM573 14l326 455l-326 455h293l330 -455l-330 -455h-293z" />
<glyph unicode="&#xbc;" horiz-adv-x="1835" d="M207 -55l979 1470h192l-979 -1470h-192zM242 680v735h213v-735h-213zM977 176v121l393 440h133v-434h58v-127h-58v-176h-207v176h-319zM1151 303h145v160z" />
<glyph unicode="&#xbd;" horiz-adv-x="1835" d="M207 -55l979 1470h192l-979 -1470h-192zM242 680v735h213v-735h-213zM1100 0v27q174 195 246.5 297.5t72.5 173.5q0 41 -27.5 68.5t-70.5 27.5q-89 0 -211 -105v175q73 39 127 55t115 16q127 0 200.5 -55.5t73.5 -151.5q0 -70 -52 -156t-165 -216h260v-156h-569z" />
<glyph unicode="&#xbe;" horiz-adv-x="1835" d="M72 719v155q60 -37 101.5 -51t88.5 -14q51 0 82 23t31 61q0 85 -127 94v137q54 5 83 26t29 56q0 34 -29.5 56t-76.5 22q-70 0 -162 -45v141q88 35 201 35q122 0 199 -50.5t77 -129.5q0 -105 -116 -166q72 -29 105.5 -72.5t33.5 -109.5q0 -97 -85.5 -157t-223.5 -60 q-53 0 -97 10.5t-114 38.5zM254 -55l979 1470h192l-979 -1470h-192zM1024 176v121l393 440h133v-434h58v-127h-58v-176h-207v176h-319zM1198 303h145v160z" />
<glyph unicode="&#xbf;" horiz-adv-x="768" d="M90 -184q0 86 30.5 162.5t74 133t87.5 109.5t74.5 116t30.5 130v25q0 22 12.5 27t51.5 5q37 0 53 -16q15 -15 36 -85.5t21 -127.5q0 -68 -25 -136t-55 -113t-55 -97.5t-25 -93.5q0 -49 32 -77t89 -28q51 0 86.5 14.5t89.5 57.5h19l-51 -252q-119 -41 -238 -41 q-157 0 -247.5 78.5t-90.5 208.5zM266 784q0 74 52.5 126.5t125.5 52.5q74 0 126.5 -52.5t52.5 -126.5q0 -73 -52.5 -125.5t-126.5 -52.5t-126 52t-52 126z" />
<glyph unicode="&#xc0;" horiz-adv-x="1599" d="M6 0l563 1397h404l620 -1397h-374l-115 276h-625l-104 -276h-369zM475 1831h338l152 -299h-152zM571 520h430l-225 543z" />
<glyph unicode="&#xc1;" horiz-adv-x="1599" d="M6 0l563 1397h404l620 -1397h-374l-115 276h-625l-104 -276h-369zM571 520h430l-225 543zM637 1532l151 299h338l-338 -299h-151z" />
<glyph unicode="&#xc2;" horiz-adv-x="1599" d="M6 0l563 1397h404l620 -1397h-374l-115 276h-625l-104 -276h-369zM457 1485l202 358h281l203 -358h-182l-160 178l-164 -178h-180zM571 520h430l-225 543z" />
<glyph unicode="&#xc3;" horiz-adv-x="1599" d="M6 0l563 1397h404l620 -1397h-374l-115 276h-625l-104 -276h-369zM401 1516q10 144 74.5 224.5t169.5 80.5q51 0 113.5 -27.5t118.5 -55.5t92 -28q72 0 90 111h139q-9 -148 -71.5 -229t-168.5 -81q-39 0 -88.5 17.5t-88.5 38t-81.5 38t-70.5 17.5q-37 0 -61.5 -27.5 t-30.5 -78.5h-136zM571 520h430l-225 543z" />
<glyph unicode="&#xc4;" horiz-adv-x="1599" d="M6 0l563 1397h404l620 -1397h-374l-115 276h-625l-104 -276h-369zM459 1663q0 55 38.5 94t94.5 39t94.5 -39t38.5 -94t-38.5 -94t-94.5 -39t-94.5 39t-38.5 94zM571 520h430l-225 543zM874 1663q0 55 39 94t95 39t94.5 -39t38.5 -94t-38.5 -94t-94.5 -39t-95 39t-39 94z " />
<glyph unicode="&#xc5;" horiz-adv-x="1599" d="M6 0l563 1397h404l620 -1397h-374l-115 276h-625l-104 -276h-369zM571 520h430l-225 543zM592 1696q0 86 61.5 146.5t147.5 60.5t146.5 -60.5t60.5 -146.5t-60.5 -147.5t-146.5 -61.5t-147.5 61.5t-61.5 147.5zM690 1696q0 -46 32.5 -79.5t78.5 -33.5t79 33.5t33 79.5 t-33 78t-79 32t-78.5 -32t-32.5 -78z" />
<glyph unicode="&#xc6;" horiz-adv-x="2197" d="M-12 0l835 1397h1241v-256h-651v-305h623v-256h-623v-324h670v-256h-1018v580h-373l-346 -580h-358zM846 836h219v378h-4z" />
<glyph unicode="&#xc7;" horiz-adv-x="1579" d="M96 694q0 141 57 270t161.5 230t266 161t355.5 60q300 0 506 -123v-311q-256 143 -481 143q-223 0 -364.5 -119t-141.5 -305q0 -188 139.5 -308t357.5 -120q66 0 124 9t125.5 33.5t115 45.5t141.5 66v-305q-152 -78 -274.5 -108.5t-304.5 -30.5l-17 -37q127 -46 127 -150 q0 -76 -58 -123t-165 -47q-93 0 -152 19v104q91 -3 123.5 13.5t32.5 50.5q0 22 -19 39.5t-65 17.5l72 125q-161 21 -289 87.5t-208.5 162.5t-122.5 211t-42 239z" />
<glyph unicode="&#xc8;" horiz-adv-x="1300" d="M160 0v1397h1016v-256h-668v-293h637v-256h-637v-336h682v-256h-1030zM326 1831h338l151 -299h-151z" />
<glyph unicode="&#xc9;" horiz-adv-x="1300" d="M160 0v1397h1016v-256h-668v-293h637v-256h-637v-336h682v-256h-1030zM487 1532l152 299h338l-338 -299h-152z" />
<glyph unicode="&#xca;" horiz-adv-x="1300" d="M160 0v1397h1016v-256h-668v-293h637v-256h-637v-336h682v-256h-1030zM307 1485l203 358h281l202 -358h-182l-160 178l-164 -178h-180z" />
<glyph unicode="&#xcb;" horiz-adv-x="1300" d="M160 0v1397h1016v-256h-668v-293h637v-256h-637v-336h682v-256h-1030zM309 1663q0 55 38.5 94t94.5 39t94.5 -39t38.5 -94t-38.5 -94t-94.5 -39t-94.5 39t-38.5 94zM725 1663q0 55 38.5 94t94.5 39t94.5 -39t38.5 -94t-38.5 -94t-94.5 -39t-94.5 39t-38.5 94z" />
<glyph unicode="&#xcc;" d="M16 1831h338l152 -299h-152zM168 0v1397h348v-1397h-348z" />
<glyph unicode="&#xcd;" d="M168 0v1397h348v-1397h-348zM178 1532l152 299h338l-338 -299h-152z" />
<glyph unicode="&#xce;" d="M-2 1485l203 358h280l203 -358h-182l-160 178l-164 -178h-180zM168 0v1397h348v-1397h-348z" />
<glyph unicode="&#xcf;" d="M0 1663q0 55 39 94t94 39t94 -39t39 -94t-39 -94t-94 -39t-94 39t-39 94zM168 0v1397h348v-1397h-348zM416 1663q0 55 39 94t94 39t94 -39t39 -94t-39 -94t-94 -39t-94 39t-39 94z" />
<glyph unicode="&#xd0;" horiz-adv-x="1642" d="M-16 606v187h170v604h616q150 0 276 -36t216.5 -100.5t154 -152.5t94.5 -192t31 -220q0 -153 -49 -278.5t-146.5 -219.5t-254.5 -146t-361 -52h-577v606h-170zM502 256h227q101 0 181 26.5t130.5 69.5t83.5 102t46.5 119t13.5 125q0 93 -26 171t-79 140t-143.5 97 t-210.5 35h-223v-348h311v-187h-311v-350z" />
<glyph unicode="&#xd1;" horiz-adv-x="1728" d="M158 0v1397h319l746 -854v854h348v-1397h-293l-772 895v-895h-348zM467 1516q10 144 74.5 224.5t169.5 80.5q41 0 89 -17.5t85 -38t78.5 -38t70.5 -17.5q72 0 90 111h140q-9 -148 -71.5 -229t-168.5 -81q-50 0 -114.5 27.5t-123 55.5t-92.5 28q-37 0 -61.5 -27.5 t-30.5 -78.5h-135z" />
<glyph unicode="&#xd2;" horiz-adv-x="1792" d="M96 698q0 103 32 204.5t99 194t160 163.5t225 113t285 42t284.5 -42.5t224.5 -113.5t159.5 -163.5t98.5 -194t32 -203.5q0 -135 -55.5 -263t-155 -229t-253 -162.5t-335.5 -61.5q-149 0 -279.5 40t-224.5 109.5t-162 160.5t-101.5 195t-33.5 211zM455 698 q0 -192 121.5 -309t320.5 -117q198 0 319 117t121 309t-121 309t-319 117q-199 0 -320.5 -117t-121.5 -309zM571 1831h338l152 -299h-152z" />
<glyph unicode="&#xd3;" horiz-adv-x="1792" d="M96 698q0 103 32 204.5t99 194t160 163.5t225 113t285 42t284.5 -42.5t224.5 -113.5t159.5 -163.5t98.5 -194t32 -203.5q0 -135 -55.5 -263t-155 -229t-253 -162.5t-335.5 -61.5q-149 0 -279.5 40t-224.5 109.5t-162 160.5t-101.5 195t-33.5 211zM455 698 q0 -192 121.5 -309t320.5 -117q198 0 319 117t121 309t-121 309t-319 117q-199 0 -320.5 -117t-121.5 -309zM733 1532l152 299h338l-338 -299h-152z" />
<glyph unicode="&#xd4;" horiz-adv-x="1792" d="M96 698q0 103 32 204.5t99 194t160 163.5t225 113t285 42t284.5 -42.5t224.5 -113.5t159.5 -163.5t98.5 -194t32 -203.5q0 -135 -55.5 -263t-155 -229t-253 -162.5t-335.5 -61.5q-149 0 -279.5 40t-224.5 109.5t-162 160.5t-101.5 195t-33.5 211zM455 698 q0 -192 121.5 -309t320.5 -117q198 0 319 117t121 309t-121 309t-319 117q-199 0 -320.5 -117t-121.5 -309zM553 1485l203 358h280l203 -358h-182l-160 178l-164 -178h-180z" />
<glyph unicode="&#xd5;" horiz-adv-x="1792" d="M96 698q0 103 32 204.5t99 194t160 163.5t225 113t285 42t284.5 -42.5t224.5 -113.5t159.5 -163.5t98.5 -194t32 -203.5q0 -135 -55.5 -263t-155 -229t-253 -162.5t-335.5 -61.5q-149 0 -279.5 40t-224.5 109.5t-162 160.5t-101.5 195t-33.5 211zM455 698 q0 -192 121.5 -309t320.5 -117q198 0 319 117t121 309t-121 309t-319 117q-199 0 -320.5 -117t-121.5 -309zM498 1516q10 145 74.5 225t168.5 80q51 0 113.5 -27.5t118.5 -55.5t92 -28q72 0 90 111h139q-9 -148 -71 -229t-168 -81q-50 0 -114.5 27.5t-123 55.5t-92.5 28 q-37 0 -61.5 -27.5t-30.5 -78.5h-135z" />
<glyph unicode="&#xd6;" horiz-adv-x="1792" d="M96 698q0 103 32 204.5t99 194t160 163.5t225 113t285 42t284.5 -42.5t224.5 -113.5t159.5 -163.5t98.5 -194t32 -203.5q0 -135 -55.5 -263t-155 -229t-253 -162.5t-335.5 -61.5q-149 0 -279.5 40t-224.5 109.5t-162 160.5t-101.5 195t-33.5 211zM455 698 q0 -192 121.5 -309t320.5 -117q198 0 319 117t121 309t-121 309t-319 117q-199 0 -320.5 -117t-121.5 -309zM555 1663q0 55 38.5 94t94.5 39t94.5 -39t38.5 -94t-38.5 -94t-94.5 -39t-94.5 39t-38.5 94zM971 1663q0 55 38.5 94t94.5 39t94.5 -39t38.5 -94t-38.5 -94 t-94.5 -39t-94.5 39t-38.5 94z" />
<glyph unicode="&#xd7;" horiz-adv-x="1196" d="M111 420l303 303l-303 303l184 184l303 -303l303 303l184 -184l-303 -303l303 -303l-184 -184l-303 303l-303 -303z" />
<glyph unicode="&#xd8;" horiz-adv-x="1792" d="M53 80l205 178q-74 89 -118 204t-44 236q0 103 32.5 204.5t99.5 194t160.5 163.5t225.5 113t285 42q279 0 492 -145l172 155l141 -141l-170 -147q75 -90 118.5 -203.5t43.5 -235.5q0 -108 -34 -212t-102.5 -195t-162.5 -160t-223 -109t-275 -40q-277 0 -496 143 l-225 -201zM455 698q0 -126 51 -215l645 576q-108 65 -252 65q-200 0 -322 -117t-122 -309zM643 338q96 -66 256 -66q198 0 318 117t120 309q0 132 -51 217z" />
<glyph unicode="&#xd9;" horiz-adv-x="1685" d="M143 602v795h349v-803q0 -148 96.5 -235t249.5 -87q72 0 133.5 19.5t112 59t79.5 108.5t29 159v779h348v-793q0 -135 -36 -242t-99 -177.5t-152.5 -116.5t-190.5 -66t-220 -20q-124 0 -229 22.5t-192.5 71.5t-148.5 121t-95 175t-34 230zM518 1831h338l152 -299h-152z " />
<glyph unicode="&#xda;" horiz-adv-x="1685" d="M143 602v795h349v-803q0 -148 96.5 -235t249.5 -87q72 0 133.5 19.5t112 59t79.5 108.5t29 159v779h348v-793q0 -135 -36 -242t-99 -177.5t-152.5 -116.5t-190.5 -66t-220 -20q-124 0 -229 22.5t-192.5 71.5t-148.5 121t-95 175t-34 230zM680 1532l151 299h338l-338 -299 h-151z" />
<glyph unicode="&#xdb;" horiz-adv-x="1685" d="M143 602v795h349v-803q0 -148 96.5 -235t249.5 -87q72 0 133.5 19.5t112 59t79.5 108.5t29 159v779h348v-793q0 -135 -36 -242t-99 -177.5t-152.5 -116.5t-190.5 -66t-220 -20q-124 0 -229 22.5t-192.5 71.5t-148.5 121t-95 175t-34 230zM500 1485l202 358h281l203 -358 h-182l-160 178l-164 -178h-180z" />
<glyph unicode="&#xdc;" horiz-adv-x="1685" d="M143 602v795h349v-803q0 -148 96.5 -235t249.5 -87q72 0 133.5 19.5t112 59t79.5 108.5t29 159v779h348v-793q0 -135 -36 -242t-99 -177.5t-152.5 -116.5t-190.5 -66t-220 -20q-124 0 -229 22.5t-192.5 71.5t-148.5 121t-95 175t-34 230zM502 1663q0 55 39 94t94 39 t94 -39t39 -94t-39 -94t-94 -39t-94 39t-39 94zM918 1663q0 55 39 94t94 39t94 -39t39 -94t-39 -94t-94 -39t-94 39t-39 94z" />
<glyph unicode="&#xdd;" horiz-adv-x="1449" d="M0 1397h422l303 -439l305 439h420l-551 -744v-653h-348v653zM563 1532l152 299h338l-338 -299h-152z" />
<glyph unicode="&#xde;" horiz-adv-x="1343" d="M170 0v1397h348v-281h275q114 0 205 -37.5t145.5 -98.5t83 -132.5t28.5 -145.5q0 -77 -27.5 -149.5t-81 -134.5t-144.5 -99.5t-207 -37.5h-277v-281h-348zM518 537h162q116 0 166.5 40t50.5 121q0 89 -57.5 125.5t-198.5 36.5h-123v-323z" />
<glyph unicode="&#xdf;" horiz-adv-x="1236" d="M133 0v975q0 118 37.5 206t103 137.5t143.5 73t169 23.5q221 0 354 -96.5t133 -257.5q0 -89 -48.5 -162t-131.5 -108q237 -90 237 -381q0 -191 -114.5 -309.5t-298.5 -118.5q-71 0 -139 18v190q42 -14 55 -14q90 0 143 73.5t53 196.5q0 133 -61 204t-178 65v147 q93 -4 137.5 48.5t44.5 140.5q0 89 -45 138.5t-123 49.5q-97 0 -135.5 -67.5t-38.5 -192.5v-979h-297z" />
<glyph unicode="&#xe0;" horiz-adv-x="1087" d="M68 213q0 47 10 84t29.5 67t52 55t72.5 46t97 42.5t120.5 42t146.5 46.5q7 2 11 3t10.5 3t11.5 4q5 72 -34 115t-130 43q-89 0 -183 -43t-165 -115v242q186 115 409 115q188 0 294 -69t106 -218v-430q0 -66 49 -66q36 0 112 53v-165q-62 -37 -140.5 -61.5t-137.5 -24.5 q-74 0 -112.5 24.5t-53.5 81.5q-156 -106 -311 -106q-111 0 -187.5 69.5t-76.5 161.5zM219 1384h338l152 -299h-152zM369 258q0 -41 28 -70.5t68 -29.5q87 0 164 71v228q-144 -52 -202 -92.5t-58 -106.5z" />
<glyph unicode="&#xe1;" horiz-adv-x="1087" d="M68 213q0 47 10 84t29.5 67t52 55t72.5 46t97 42.5t120.5 42t146.5 46.5q7 2 11 3t10.5 3t11.5 4q5 72 -34 115t-130 43q-89 0 -183 -43t-165 -115v242q186 115 409 115q188 0 294 -69t106 -218v-430q0 -66 49 -66q36 0 112 53v-165q-62 -37 -140.5 -61.5t-137.5 -24.5 q-74 0 -112.5 24.5t-53.5 81.5q-156 -106 -311 -106q-111 0 -187.5 69.5t-76.5 161.5zM369 258q0 -41 28 -70.5t68 -29.5q87 0 164 71v228q-144 -52 -202 -92.5t-58 -106.5zM381 1085l151 299h338l-338 -299h-151z" />
<glyph unicode="&#xe2;" horiz-adv-x="1087" d="M68 213q0 47 10 84t29.5 67t52 55t72.5 46t97 42.5t120.5 42t146.5 46.5q7 2 11 3t10.5 3t11.5 4q5 72 -34 115t-130 43q-89 0 -183 -43t-165 -115v242q186 115 409 115q188 0 294 -69t106 -218v-430q0 -66 49 -66q36 0 112 53v-165q-62 -37 -140.5 -61.5t-137.5 -24.5 q-74 0 -112.5 24.5t-53.5 81.5q-156 -106 -311 -106q-111 0 -187.5 69.5t-76.5 161.5zM201 1038l202 359h281l203 -359h-182l-160 179l-164 -179h-180zM369 258q0 -41 28 -70.5t68 -29.5q87 0 164 71v228q-144 -52 -202 -92.5t-58 -106.5z" />
<glyph unicode="&#xe3;" horiz-adv-x="1087" d="M68 213q0 47 10 84t29.5 67t52 55t72.5 46t97 42.5t120.5 42t146.5 46.5q7 2 11 3t10.5 3t11.5 4q5 72 -34 115t-130 43q-89 0 -183 -43t-165 -115v242q186 115 409 115q188 0 294 -69t106 -218v-430q0 -66 49 -66q36 0 112 53v-165q-62 -37 -140.5 -61.5t-137.5 -24.5 q-74 0 -112.5 24.5t-53.5 81.5q-156 -106 -311 -106q-111 0 -187.5 69.5t-76.5 161.5zM145 1069q10 144 74.5 224.5t169.5 80.5q51 0 113.5 -27.5t118.5 -55t92 -27.5q72 0 90 110h139q-9 -148 -71.5 -228.5t-168.5 -80.5q-39 0 -88.5 17.5t-88.5 38t-81.5 38t-70.5 17.5 q-37 0 -61.5 -28t-30.5 -79h-136zM369 258q0 -41 28 -70.5t68 -29.5q87 0 164 71v228q-144 -52 -202 -92.5t-58 -106.5z" />
<glyph unicode="&#xe4;" horiz-adv-x="1087" d="M68 213q0 47 10 84t29.5 67t52 55t72.5 46t97 42.5t120.5 42t146.5 46.5q7 2 11 3t10.5 3t11.5 4q5 72 -34 115t-130 43q-89 0 -183 -43t-165 -115v242q186 115 409 115q188 0 294 -69t106 -218v-430q0 -66 49 -66q36 0 112 53v-165q-62 -37 -140.5 -61.5t-137.5 -24.5 q-74 0 -112.5 24.5t-53.5 81.5q-156 -106 -311 -106q-111 0 -187.5 69.5t-76.5 161.5zM203 1217q0 55 38.5 94t94.5 39t94.5 -39t38.5 -94q0 -56 -39 -95t-94 -39t-94 39t-39 95zM369 258q0 -41 28 -70.5t68 -29.5q87 0 164 71v228q-144 -52 -202 -92.5t-58 -106.5z M618 1217q0 55 39 94t95 39t94.5 -39t38.5 -94q0 -56 -39 -95t-94 -39q-56 0 -95 39.5t-39 94.5z" />
<glyph unicode="&#xe5;" horiz-adv-x="1087" d="M68 213q0 47 10 84t29.5 67t52 55t72.5 46t97 42.5t120.5 42t146.5 46.5q7 2 11 3t10.5 3t11.5 4q5 72 -34 115t-130 43q-89 0 -183 -43t-165 -115v242q186 115 409 115q188 0 294 -69t106 -218v-430q0 -66 49 -66q36 0 112 53v-165q-62 -37 -140.5 -61.5t-137.5 -24.5 q-74 0 -112.5 24.5t-53.5 81.5q-156 -106 -311 -106q-111 0 -187.5 69.5t-76.5 161.5zM336 1249q0 86 61.5 146.5t147.5 60.5t146.5 -60.5t60.5 -146.5t-60.5 -147.5t-146.5 -61.5t-147.5 61.5t-61.5 147.5zM369 258q0 -41 28 -70.5t68 -29.5q87 0 164 71v228 q-144 -52 -202 -92.5t-58 -106.5zM434 1249q0 -46 32.5 -79t78.5 -33t79 33t33 79t-33 78.5t-79 32.5t-78.5 -32.5t-32.5 -78.5z" />
<glyph unicode="&#xe6;" horiz-adv-x="1599" d="M74 217q0 56 19.5 102t54 80t84 62.5t109 50.5t129 43t142.5 41q21 5 31 8q7 73 -40.5 116.5t-127.5 43.5q-83 0 -184.5 -45.5t-175.5 -114.5v236q210 123 389 123q91 0 158 -23t149 -82q120 105 281 105q93 0 176.5 -39t144.5 -107.5t93.5 -170.5t25.5 -220h-592 q-6 -125 59 -196.5t175 -71.5q180 0 344 147v-194q-174 -129 -410 -129q-115 0 -215 33.5t-168 95.5q-89 -67 -181 -98t-202 -31q-122 0 -195 68t-73 167zM375 256q0 -42 27 -70t67 -28q69 0 174 67v232q-268 -74 -268 -201zM940 582h307q-7 101 -47.5 152.5t-109.5 51.5 q-70 0 -108.5 -52t-41.5 -152z" />
<glyph unicode="&#xe7;" horiz-adv-x="1024" d="M82 469q0 217 150.5 355.5t383.5 138.5q154 0 318 -62v-221q-120 63 -242 63q-134 0 -213.5 -74t-79.5 -198q0 -126 77.5 -202t205.5 -76q54 0 110.5 14t155.5 51v-213q-174 -63 -340 -63l-12 -29q127 -46 127 -150q0 -76 -58 -123t-165 -47q-93 0 -152 19v104 q91 -3 123.5 13.5t32.5 50.5q0 22 -19 39.5t-65 17.5l67 119q-188 34 -296.5 159.5t-108.5 313.5z" />
<glyph unicode="&#xe8;" horiz-adv-x="1130" d="M76 469q0 217 139.5 355.5t357.5 138.5q103 0 193.5 -36.5t158 -103.5t104.5 -170.5t32 -228.5h-678q7 -126 89 -196t222 -70q90 0 168 30t182 105v-187q-59 -44 -123.5 -71.5t-126.5 -37.5t-94.5 -12.5t-76.5 -2.5q-249 0 -398 133t-149 354zM242 1384h338l151 -299 h-151zM389 580h410q-9 96 -64 151t-141 55q-88 0 -142 -54t-63 -152z" />
<glyph unicode="&#xe9;" horiz-adv-x="1130" d="M76 469q0 217 139.5 355.5t357.5 138.5q103 0 193.5 -36.5t158 -103.5t104.5 -170.5t32 -228.5h-678q7 -126 89 -196t222 -70q90 0 168 30t182 105v-187q-59 -44 -123.5 -71.5t-126.5 -37.5t-94.5 -12.5t-76.5 -2.5q-249 0 -398 133t-149 354zM389 580h410q-9 96 -64 151 t-141 55q-88 0 -142 -54t-63 -152zM403 1085l152 299h338l-338 -299h-152z" />
<glyph unicode="&#xea;" horiz-adv-x="1130" d="M76 469q0 217 139.5 355.5t357.5 138.5q103 0 193.5 -36.5t158 -103.5t104.5 -170.5t32 -228.5h-678q7 -126 89 -196t222 -70q90 0 168 30t182 105v-187q-59 -44 -123.5 -71.5t-126.5 -37.5t-94.5 -12.5t-76.5 -2.5q-249 0 -398 133t-149 354zM223 1038l203 359h281 l202 -359h-182l-160 179l-164 -179h-180zM389 580h410q-9 96 -64 151t-141 55q-88 0 -142 -54t-63 -152z" />
<glyph unicode="&#xeb;" horiz-adv-x="1130" d="M76 469q0 217 139.5 355.5t357.5 138.5q103 0 193.5 -36.5t158 -103.5t104.5 -170.5t32 -228.5h-678q7 -126 89 -196t222 -70q90 0 168 30t182 105v-187q-59 -44 -123.5 -71.5t-126.5 -37.5t-94.5 -12.5t-76.5 -2.5q-249 0 -398 133t-149 354zM225 1217q0 55 38.5 94 t94.5 39t95 -39t39 -94t-39 -94.5t-95 -39.5q-55 0 -94 39t-39 95zM389 580h410q-9 96 -64 151t-141 55q-88 0 -142 -54t-63 -152zM641 1217q0 55 38.5 94t94.5 39t94.5 -39t38.5 -94q0 -56 -39 -95t-94 -39t-94 39t-39 95z" />
<glyph unicode="&#xec;" horiz-adv-x="555" d="M-47 1384h338l151 -299h-151zM129 0v944h297v-944h-297z" />
<glyph unicode="&#xed;" horiz-adv-x="555" d="M115 1085l151 299h338l-338 -299h-151zM129 0v944h297v-944h-297z" />
<glyph unicode="&#xee;" horiz-adv-x="555" d="M-66 1038l203 359h281l203 -359h-183l-159 179l-164 -179h-181zM129 0v944h297v-944h-297z" />
<glyph unicode="&#xef;" horiz-adv-x="555" d="M-63 1217q0 55 38.5 94t94.5 39t94.5 -39t38.5 -94q0 -56 -39 -95t-94 -39t-94 39t-39 95zM129 0v944h297v-944h-297zM352 1217q0 55 39 94t94 39t94 -39t39 -94q0 -56 -39 -95t-94 -39t-94 39t-39 95z" />
<glyph unicode="&#xf0;" horiz-adv-x="1259" d="M94 473q0 205 137.5 347.5t337.5 142.5q63 0 111.5 -14.5t116.5 -59.5l4 2q-38 102 -176 229l-297 -104l-45 123l225 80q-57 42 -107 65l187 131q108 -46 184 -100l281 100l45 -127l-205 -71q134 -132 200 -304t66 -360q0 -131 -35.5 -234t-90.5 -165t-128 -102 t-140.5 -55t-135.5 -15q-234 0 -384.5 135.5t-150.5 355.5zM412 473q0 -169 60.5 -242t156.5 -73q104 0 158.5 82.5t54.5 238.5q0 144 -52 225.5t-161 81.5q-100 0 -158.5 -79t-58.5 -234z" />
<glyph unicode="&#xf1;" horiz-adv-x="1193" d="M123 0v944h297v-135q70 81 143 117.5t164 36.5q47 0 92.5 -10.5t92 -37t81 -66.5t56.5 -104.5t22 -144.5v-600h-297v575q0 95 -40 142t-107 47q-56 0 -102.5 -34.5t-104.5 -121.5v-608h-297zM199 1069q10 145 74.5 225t168.5 80q51 0 113.5 -27.5t118.5 -55t92 -27.5 q72 0 90 110h139q-9 -148 -71 -228.5t-168 -80.5q-50 0 -114.5 27.5t-123 55.5t-92.5 28q-37 0 -61.5 -28t-30.5 -79h-135z" />
<glyph unicode="&#xf2;" horiz-adv-x="1216" d="M76 473q0 117 44 212t118.5 154.5t170 91.5t201.5 32q73 0 144.5 -16t142 -53.5t124 -92.5t87 -140.5t33.5 -189.5q0 -108 -35.5 -194.5t-91 -140t-128 -89.5t-141 -50.5t-135.5 -14.5q-234 0 -384 135.5t-150 355.5zM285 1384h338l151 -299h-151zM393 473 q0 -169 60.5 -242t156.5 -73q104 0 158.5 82.5t54.5 238.5q0 144 -52 225.5t-161 81.5q-100 0 -158.5 -79t-58.5 -234z" />
<glyph unicode="&#xf3;" horiz-adv-x="1216" d="M76 473q0 117 44 212t118.5 154.5t170 91.5t201.5 32q73 0 144.5 -16t142 -53.5t124 -92.5t87 -140.5t33.5 -189.5q0 -108 -35.5 -194.5t-91 -140t-128 -89.5t-141 -50.5t-135.5 -14.5q-234 0 -384 135.5t-150 355.5zM393 473q0 -169 60.5 -242t156.5 -73 q104 0 158.5 82.5t54.5 238.5q0 144 -52 225.5t-161 81.5q-100 0 -158.5 -79t-58.5 -234zM446 1085l152 299h338l-338 -299h-152z" />
<glyph unicode="&#xf4;" horiz-adv-x="1216" d="M76 473q0 117 44 212t118.5 154.5t170 91.5t201.5 32q73 0 144.5 -16t142 -53.5t124 -92.5t87 -140.5t33.5 -189.5q0 -108 -35.5 -194.5t-91 -140t-128 -89.5t-141 -50.5t-135.5 -14.5q-234 0 -384 135.5t-150 355.5zM266 1038l203 359h281l202 -359h-182l-160 179 l-164 -179h-180zM393 473q0 -169 60.5 -242t156.5 -73q104 0 158.5 82.5t54.5 238.5q0 144 -52 225.5t-161 81.5q-100 0 -158.5 -79t-58.5 -234z" />
<glyph unicode="&#xf5;" horiz-adv-x="1216" d="M76 473q0 117 44 212t118.5 154.5t170 91.5t201.5 32q73 0 144.5 -16t142 -53.5t124 -92.5t87 -140.5t33.5 -189.5q0 -108 -35.5 -194.5t-91 -140t-128 -89.5t-141 -50.5t-135.5 -14.5q-234 0 -384 135.5t-150 355.5zM211 1069q10 144 74.5 224.5t169.5 80.5 q51 0 113.5 -27.5t118 -55t91.5 -27.5q72 0 90 110h140q-9 -148 -71.5 -228.5t-168.5 -80.5q-50 0 -114.5 27.5t-123 55.5t-92.5 28q-37 0 -61.5 -28t-30.5 -79h-135zM393 473q0 -169 60.5 -242t156.5 -73q104 0 158.5 82.5t54.5 238.5q0 144 -52 225.5t-161 81.5 q-100 0 -158.5 -79t-58.5 -234z" />
<glyph unicode="&#xf6;" horiz-adv-x="1216" d="M76 473q0 117 44 212t118.5 154.5t170 91.5t201.5 32q73 0 144.5 -16t142 -53.5t124 -92.5t87 -140.5t33.5 -189.5q0 -108 -35.5 -194.5t-91 -140t-128 -89.5t-141 -50.5t-135.5 -14.5q-234 0 -384 135.5t-150 355.5zM268 1217q0 55 39 94t94 39q56 0 95 -39t39 -94 t-39.5 -94.5t-94.5 -39.5t-94 39t-39 95zM393 473q0 -169 60.5 -242t156.5 -73q104 0 158.5 82.5t54.5 238.5q0 144 -52 225.5t-161 81.5q-100 0 -158.5 -79t-58.5 -234zM684 1217q0 55 39 94t94 39t94 -39t39 -94q0 -56 -39 -95t-94 -39t-94 39t-39 95z" />
<glyph unicode="&#xf7;" horiz-adv-x="1196" d="M86 592v262h1024v-262h-1024zM449 319q0 62 44 106t105 44q62 0 106 -44.5t44 -105.5t-44 -105t-106 -44t-105.5 44t-43.5 105zM449 1126q0 62 44 106t105 44q62 0 106 -44t44 -106q0 -61 -44 -105t-106 -44t-105.5 43.5t-43.5 105.5z" />
<glyph unicode="&#xf8;" horiz-adv-x="1216" d="M76 473q0 117 44 212t118.5 154.5t170 91.5t201.5 32q148 0 271 -60l143 166l109 -104l-127 -150q135 -128 135 -344q0 -108 -35.5 -194.5t-91 -140t-128 -89.5t-141 -50.5t-135.5 -14.5q-162 0 -272 61l-133 -154l-105 93l121 141q-145 138 -145 350zM393 473 q0 -76 13 -133l337 399q-53 47 -133 47q-100 0 -158.5 -79t-58.5 -234zM477 205q21 -21 58.5 -34t74.5 -13q104 0 158.5 82.5t54.5 238.5q0 68 -10 117z" />
<glyph unicode="&#xf9;" horiz-adv-x="1193" d="M123 340v604h297v-584q0 -93 42 -136.5t107 -43.5q67 0 123 46t80 116v602h299v-944h-297v135q-70 -81 -142.5 -117t-162.5 -36q-149 0 -247.5 92t-98.5 266zM272 1384h338l152 -299h-152z" />
<glyph unicode="&#xfa;" horiz-adv-x="1193" d="M123 340v604h297v-584q0 -93 42 -136.5t107 -43.5q67 0 123 46t80 116v602h299v-944h-297v135q-70 -81 -142.5 -117t-162.5 -36q-149 0 -247.5 92t-98.5 266zM434 1085l152 299h338l-338 -299h-152z" />
<glyph unicode="&#xfb;" horiz-adv-x="1193" d="M123 340v604h297v-584q0 -93 42 -136.5t107 -43.5q67 0 123 46t80 116v602h299v-944h-297v135q-70 -81 -142.5 -117t-162.5 -36q-149 0 -247.5 92t-98.5 266zM254 1038l203 359h280l203 -359h-182l-160 179l-164 -179h-180z" />
<glyph unicode="&#xfc;" horiz-adv-x="1193" d="M123 340v604h297v-584q0 -93 42 -136.5t107 -43.5q67 0 123 46t80 116v602h299v-944h-297v135q-70 -81 -142.5 -117t-162.5 -36q-149 0 -247.5 92t-98.5 266zM256 1217q0 55 39 94t94 39t94 -39t39 -94q0 -56 -39 -95t-94 -39t-94 39t-39 95zM672 1217q0 55 39 94t94 39 t94 -39t39 -94q0 -56 -39 -95t-94 -39t-94 39t-39 95z" />
<glyph unicode="&#xfd;" horiz-adv-x="1044" d="M2 944h317l199 -485l213 485h311l-632 -1397h-316l277 607zM360 1085l152 299h338l-338 -299h-152z" />
<glyph unicode="&#xfe;" horiz-adv-x="1193" d="M117 -471v1868h297v-535q121 101 270 101q185 0 311.5 -139t126.5 -341q0 -227 -127 -364t-338 -137q-132 0 -243 65v-518h-297zM414 242q85 -62 172 -62q109 0 172 77.5t63 209.5q0 135 -58.5 210t-164.5 75q-47 0 -88 -16.5t-96 -59.5v-434z" />
<glyph unicode="&#xff;" horiz-adv-x="1044" d="M2 944h317l199 -485l213 485h311l-632 -1397h-316l277 607zM182 1217q0 55 39 94t94 39q56 0 95 -39t39 -94t-39.5 -94.5t-94.5 -39.5t-94 39t-39 95zM598 1217q0 55 39 94t94 39t94 -39t39 -94q0 -56 -39 -95t-94 -39t-94 39t-39 95z" />
<glyph unicode="&#x152;" horiz-adv-x="2240" d="M96 702q0 316 208.5 505.5t569.5 189.5h1244v-256h-654v-293h625v-256h-625v-336h668v-256h-1255q-228 0 -402.5 79.5t-276.5 240t-102 382.5zM455 698q0 -91 33.5 -170.5t94.5 -140.5t155.5 -96t209.5 -35h168v885h-168q-116 0 -211 -36t-156 -97t-93.5 -141t-32.5 -169 z" />
<glyph unicode="&#x153;" horiz-adv-x="1792" d="M74 477q0 209 153 347.5t385 138.5q99 0 177.5 -25t171.5 -88q82 66 140.5 89.5t143.5 23.5q104 0 194 -36t157 -102.5t103.5 -169.5t31.5 -229h-609q-4 -118 68.5 -193t181.5 -75q86 0 176.5 38t165.5 109v-203q-171 -120 -373 -120q-199 0 -366 120 q-160 -120 -367 -120q-149 0 -271 64t-192.5 177.5t-70.5 253.5zM391 469q0 -311 217 -311q111 0 164 81.5t53 252.5q0 141 -57.5 217.5t-163.5 76.5q-213 0 -213 -317zM1122 582h336q0 85 -46 144.5t-128 59.5q-72 0 -117 -56t-45 -148z" />
<glyph unicode="&#x178;" horiz-adv-x="1449" d="M0 1397h422l303 -439l305 439h420l-551 -744v-653h-348v653zM385 1663q0 55 38.5 94t94.5 39t94.5 -39t38.5 -94t-38.5 -94t-94.5 -39t-94.5 39t-38.5 94zM801 1663q0 55 38.5 94t94.5 39t94.5 -39t38.5 -94t-38.5 -94t-94.5 -39t-94.5 39t-38.5 94z" />
<glyph unicode="&#x2c6;" d="M-2 1038l203 359h280l203 -359h-182l-160 179l-164 -179h-180z" />
<glyph unicode="&#x2dc;" d="M-57 1069q10 145 74.5 225t168.5 80q51 0 113.5 -27.5t118.5 -55t92 -27.5q72 0 90 110h139q-9 -148 -71 -228.5t-168 -80.5q-50 0 -114.5 27.5t-123 55.5t-92.5 28q-37 0 -61.5 -28t-30.5 -79h-135z" />
<glyph unicode="&#x2000;" horiz-adv-x="951" />
<glyph unicode="&#x2001;" horiz-adv-x="1903" />
<glyph unicode="&#x2002;" horiz-adv-x="951" />
<glyph unicode="&#x2003;" horiz-adv-x="1903" />
<glyph unicode="&#x2004;" horiz-adv-x="634" />
<glyph unicode="&#x2005;" horiz-adv-x="475" />
<glyph unicode="&#x2006;" horiz-adv-x="317" />
<glyph unicode="&#x2007;" horiz-adv-x="317" />
<glyph unicode="&#x2008;" horiz-adv-x="237" />
<glyph unicode="&#x2009;" horiz-adv-x="380" />
<glyph unicode="&#x200a;" horiz-adv-x="105" />
<glyph unicode="&#x2010;" d="M74 338v272h534v-272h-534z" />
<glyph unicode="&#x2011;" d="M74 338v272h534v-272h-534z" />
<glyph unicode="&#x2012;" d="M74 338v272h534v-272h-534z" />
<glyph unicode="&#x2013;" horiz-adv-x="1024" d="M-12 338v270h1048v-270h-1048z" />
<glyph unicode="&#x2014;" horiz-adv-x="2048" d="M-12 338v270h2072v-270h-2072z" />
<glyph unicode="&#x2018;" horiz-adv-x="555" d="M92 1010q0 154 105 272t256 133v-63q-46 -41 -74 -117.5t-19 -147.5q55 -22 80 -57.5t25 -91.5q0 -70 -48 -116t-120 -46q-91 0 -148 65.5t-57 168.5z" />
<glyph unicode="&#x2019;" horiz-adv-x="555" d="M90 1253q0 70 48 116t120 46q91 0 148 -65t57 -168q0 -154 -105 -272.5t-256 -133.5v64q46 41 74 117t19 147q-55 22 -80 57.5t-25 91.5z" />
<glyph unicode="&#x201a;" horiz-adv-x="555" d="M90 131q0 70 48 116t120 46q91 0 148 -65.5t57 -168.5q0 -154 -105 -272t-256 -133v63q46 41 74 117.5t19 147.5q-55 22 -80 57.5t-25 91.5z" />
<glyph unicode="&#x201c;" horiz-adv-x="1153" d="M117 1010q0 154 104.5 272t255.5 133v-63q-46 -41 -73.5 -117t-18.5 -148q54 -22 79 -57t25 -92q0 -70 -47.5 -116t-119.5 -46q-91 0 -148 65.5t-57 168.5zM686 1010q0 154 105 272t256 133v-63q-46 -41 -74 -117.5t-19 -147.5q55 -22 80 -57.5t25 -91.5q0 -70 -48 -116 t-120 -46q-91 0 -148 65.5t-57 168.5z" />
<glyph unicode="&#x201d;" horiz-adv-x="1153" d="M94 1253q0 70 48 116t120 46q91 0 148 -65t57 -168q0 -154 -105 -272.5t-256 -133.5v64q46 41 74 117t19 147q-55 22 -80 57.5t-25 91.5zM664 1253q0 70 47.5 116t119.5 46q91 0 148 -65t57 -168q0 -154 -105 -272.5t-255 -133.5v64q46 41 73.5 117t18.5 147 q-54 22 -79 57t-25 92z" />
<glyph unicode="&#x201e;" horiz-adv-x="1153" d="M104 131q0 70 48 116t120 46q91 0 148 -65.5t57 -168.5q0 -154 -104.5 -272t-255.5 -133v63q46 41 73.5 117t18.5 148q-55 22 -80 57.5t-25 91.5zM676 131q0 70 48 116t120 46q91 0 148 -65.5t57 -168.5q0 -154 -105 -272t-256 -133v63q46 41 73.5 117t18.5 148 q-54 22 -79 57t-25 92z" />
<glyph unicode="&#x2022;" horiz-adv-x="724" d="M66 698q0 123 85.5 209t208.5 86t209 -86t86 -209t-86 -209t-209 -86t-208.5 86t-85.5 209z" />
<glyph unicode="&#x2026;" horiz-adv-x="2048" d="M164 160q0 74 52 126t126 52t126 -52t52 -126t-52 -126t-126 -52t-126 52t-52 126zM846 160q0 74 52 126t126 52t126 -52t52 -126t-52 -126t-126 -52t-126 52t-52 126zM1528 160q0 74 52 126t126 52t126 -52t52 -126t-52 -126t-126 -52t-126 52t-52 126z" />
<glyph unicode="&#x202f;" horiz-adv-x="380" />
<glyph unicode="&#x2039;" horiz-adv-x="661" d="M18 469l330 455h293l-326 -455l326 -455h-293z" />
<glyph unicode="&#x203a;" horiz-adv-x="661" d="M20 14l326 455l-326 455h293l330 -455l-330 -455h-293z" />
<glyph unicode="&#x205f;" horiz-adv-x="475" />
<glyph unicode="&#x20ac;" horiz-adv-x="1284" d="M33 467l33 168h116q-2 63 2 131h-151l33 168h145q11 42 26.5 83t42.5 90t60.5 91.5t82.5 83t106 69.5t133 46.5t163 17.5q134 0 340 -43l-43 -260q-169 41 -276 41q-124 0 -200 -56t-116 -163h547l-33 -168h-552q-4 -56 0 -131h536l-33 -168h-471q50 -121 117.5 -172 t173.5 -51q68 0 138 20.5t188 75.5v-268q-63 -27 -97.5 -41t-114.5 -31.5t-159 -17.5q-104 0 -192.5 29.5t-148.5 77t-107 113t-74 130t-43 135.5h-172z" />
<glyph unicode="&#x2122;" horiz-adv-x="2048" d="M217 1323v143h664v-143h-246v-676h-166v676h-252zM979 647v819h260l147 -565h5l147 565h260v-819h-158v653h-4l-174 -653h-149l-172 653h-4v-653h-158z" />
<glyph unicode="&#xe000;" horiz-adv-x="942" d="M0 0v942h942v-942h-942z" />
</font>
</defs>
</svg>
