<?xml version="1.0" encoding="utf-8"?>
<!-- Generator: Adobe Illustrator 16.0.4, SVG Export Plug-In . SVG Version: 6.00 Build 0)  -->
<!DOCTYPE svg PUBLIC "-//W3C//DTD SVG 1.1//EN" "http://www.w3.org/Graphics/SVG/1.1/DTD/svg11.dtd">
<svg version="1.1" id="Layer_1" xmlns="http://www.w3.org/2000/svg" xmlns:xlink="http://www.w3.org/1999/xlink" x="0px" y="0px"
	 width="612px" height="792px" viewBox="0 0 612 792" enable-background="new 0 0 612 792" xml:space="preserve">
<path fill="#FFFFFF" stroke="#010101" stroke-miterlimit="10" d="M280.25,209.5c0,0,2-6,4-10s-15-5,5-13s27-8,34-7s17,9,17,9l7,21
	l-7,14l-21,2h-16L280.25,209.5z"/>
<path fill="#FFFFFF" stroke="#010101" stroke-miterlimit="10" d="M161.25,158.5c3-10,19-37,25-45s38-17,47-22s18-3,19,4
	s-14,15-14,15s9,17,2,17s-19,7-29,12s-7,6-20,14s-6.783,16.835-11,21c-3.246,3.206-18-3-18-3L161.25,158.5z"/>
<path fill="#FFFFFF" stroke="#010101" stroke-miterlimit="10" d="M134.25,204.5c0,0,23-13,32-9s19,6,26,1s19,2,15,14s-37,31-30,41
	s-3,23,5,32s18,12,5,18s-36,10-40,3s-16-53-16-53S123.25,217.5,134.25,204.5z"/>
<path fill="#FFFFFF" stroke="#010101" stroke-miterlimit="10" d="M205.25,279.5c11.229-4.679,32-11,58-11s33-8,44,1s7,8,9,25
	s-24,19-46,24s-46,4-51,0S193.25,284.5,205.25,279.5z"/>
</svg>
