<?xml version="1.0" encoding="utf-8"?>
<!-- Generator: Adobe Illustrator 16.0.4, SVG Export Plug-In . SVG Version: 6.00 Build 0)  -->
<!DOCTYPE svg PUBLIC "-//W3C//DTD SVG 1.1//EN" "http://www.w3.org/Graphics/SVG/1.1/DTD/svg11.dtd">
<svg version="1.1" id="Layer_1" xmlns="http://www.w3.org/2000/svg" xmlns:xlink="http://www.w3.org/1999/xlink" x="0px" y="0px"
	 width="612px" height="792px" viewBox="0 0 612 792" enable-background="new 0 0 612 792" xml:space="preserve">
<path fill="#1B52C1" d="M23.333,281.667V290l3.333,4.667L31,298c0,0,5,13.333,6,14s11.667,13.333,11.667,13.333l2.667,6.333v4.667
	l2.333,4l6.091,0.463l4.576,4.537l9.072,0.637l3.98,0.279l3.407,7.285h12.543L95,359.667l7.033,0.37v-8.37V347l-12.161,2.159
	l0.461-5.825l3.002-4l1.741-4.997V330l-9.73,2.387l-8.555,2.098L71,329.333V326l1.667-8l4-5.667l10.247-3.42l7.753-3.246l9.22,1.205
	l5.415,0.708l1.486,5.358v5.73l3.863,2.185v-4.518v-4.523V305l3.35-3.333l-14.212-4.05l-14.122-5.95l-16-7l-11.667-3l-14.333-5
	L23.333,281.667z"/>
<polygon fill="#44CC23" points="205.397,412.334 201.594,422.667 199.738,427.145 186.276,426.023 166,431.667 142.077,442.095 
	139.658,451 139.658,461.346 139.658,468.334 139.658,472.667 148.985,479 164.333,481 180.622,469.88 192.592,460.667 
	205.397,451.329 209.667,444.667 212.667,446.667 214.667,444.667 214.667,428.389 224.333,417.334 222.078,404.252 
	211.667,400.667 201.333,400.667 "/>
<polygon fill="#CE3A68" points="376.333,430.667 360.667,439 351.333,454.334 351.333,465.334 353.333,474 363.833,478 
	372.586,476.3 382.333,471.667 390.333,456.334 384.667,440.834 "/>
<path fill="#E0650A" d="M410.999,314.667l-23-5.667h-22.666l-12,2.833l-5.334,2.833c0,0,5.001,8,6.334,8.333s23.666,0,23.666,0
	l20.667,6.667l19.17,3.283l4.163-11.975L410.999,314.667z"/>
<path fill="#6523CC" d="M28.332,604.666c1,1,48.333,17,48.333,17h153.333H310.5h246.498l44-17l-19.666-2.667l2-5l19.666-4
	l-18.666-13.666l-265.334,3.666L258.665,600.5l-41.205-0.614l-18.354-9.56l-1.441-13.327v-8l-17.043,11.7l1.374,12.3l-42.338-3
	l5.674,9.334l-27.667-4.001c0,0-27-4.666-27-3.666s-30.31,9.572-30.31,9.572l2.976,7.095l-8-3L28.332,604.666z"/>
</svg>
